<svg viewBox="0 0 1200 630" width="1200" height="630" xmlns="http://www.w3.org/2000/svg" role="img">
  <defs>
    <radialGradient id="glow" cx="56.92%" cy="20%" r="90%">
      <stop offset="0%" stop-color="#1B140C"/>
      <stop offset="46%" stop-color="#0A0807"/>
      <stop offset="100%" stop-color="#060504"/>
    </radialGradient>
    <radialGradient id="bloom" cx="50%" cy="50%" r="50%">
      <stop offset="0%" stop-color="#E6B450" stop-opacity="0.55"/>
      <stop offset="55%" stop-color="#E6B450" stop-opacity="0.12"/>
      <stop offset="100%" stop-color="#E6B450" stop-opacity="0"/>
    </radialGradient>
    <linearGradient id="leak" x1="0" y1="0" x2="1" y2="1">
      <stop offset="0%" stop-color="#D9663C" stop-opacity="0.30"/>
      <stop offset="40%" stop-color="#0A0807" stop-opacity="0.2"/>
      <stop offset="100%" stop-color="#060504" stop-opacity="0.1"/>
    </linearGradient>
    <linearGradient id="vgrain" x1="0" y1="0" x2="0" y2="1">
      <stop offset="0%" stop-color="#D9663C" stop-opacity="0.22"/>
      <stop offset="60%" stop-color="#0A0807"/>
      <stop offset="100%" stop-color="#060504"/>
    </linearGradient>
    <filter id="grain"><feTurbulence type="fractalNoise" baseFrequency="0.9" numOctaves="2" stitchTiles="stitch"/>
      <feColorMatrix type="saturate" values="0"/></filter>
  </defs>
  <rect x="0" y="0" width="1200" height="630" fill="url(#glow)"/>
  <circle cx="600" cy="315" r="190" fill="none" stroke="#E6B450" stroke-width="2.4" opacity="1"/><circle cx="600" cy="315" r="212" fill="none" stroke="#E6B450" stroke-width="1" opacity="0.22"/><line x1="600" y1="141" x2="600" y2="125" stroke="#E6B450" stroke-width="2" stroke-linecap="round" opacity="0.8"/><line x1="619.02" y1="134" x2="619.86" y2="126.04" stroke="#E6B450" stroke-width="1" stroke-linecap="round" opacity="0.4"/><line x1="637.84" y1="136.98" x2="639.5" y2="129.15" stroke="#E6B450" stroke-width="1" stroke-linecap="round" opacity="0.4"/><line x1="656.24" y1="141.91" x2="658.71" y2="134.3" stroke="#E6B450" stroke-width="1" stroke-linecap="round" opacity="0.4"/><line x1="674.03" y1="148.73" x2="677.28" y2="141.43" stroke="#E6B450" stroke-width="1" stroke-linecap="round" opacity="0.4"/><line x1="687" y1="164.31" x2="695" y2="150.46" stroke="#E6B450" stroke-width="2" stroke-linecap="round" opacity="0.8"/><line x1="706.98" y1="167.76" x2="711.68" y2="161.29" stroke="#E6B450" stroke-width="1" stroke-linecap="round" opacity="0.4"/><line x1="721.78" y1="179.75" x2="727.13" y2="173.8" stroke="#E6B450" stroke-width="1" stroke-linecap="round" opacity="0.4"/><line x1="735.25" y1="193.22" x2="741.2" y2="187.87" stroke="#E6B450" stroke-width="1" stroke-linecap="round" opacity="0.4"/><line x1="747.24" y1="208.02" x2="753.71" y2="203.32" stroke="#E6B450" stroke-width="1" stroke-linecap="round" opacity="0.4"/><line x1="750.69" y1="228" x2="764.54" y2="220" stroke="#E6B450" stroke-width="2" stroke-linecap="round" opacity="0.8"/><line x1="766.27" y1="240.97" x2="773.57" y2="237.72" stroke="#E6B450" stroke-width="1" stroke-linecap="round" opacity="0.4"/><line x1="773.09" y1="258.76" x2="780.7" y2="256.29" stroke="#E6B450" stroke-width="1" stroke-linecap="round" opacity="0.4"/><line x1="778.02" y1="277.16" x2="785.85" y2="275.5" stroke="#E6B450" stroke-width="1" stroke-linecap="round" opacity="0.4"/><line x1="781" y1="295.98" x2="788.96" y2="295.14" stroke="#E6B450" stroke-width="1" stroke-linecap="round" opacity="0.4"/><line x1="774" y1="315" x2="790" y2="315" stroke="#E6B450" stroke-width="2" stroke-linecap="round" opacity="0.8"/><line x1="781" y1="334.02" x2="788.96" y2="334.86" stroke="#E6B450" stroke-width="1" stroke-linecap="round" opacity="0.4"/><line x1="778.02" y1="352.84" x2="785.85" y2="354.5" stroke="#E6B450" stroke-width="1" stroke-linecap="round" opacity="0.4"/><line x1="773.09" y1="371.24" x2="780.7" y2="373.71" stroke="#E6B450" stroke-width="1" stroke-linecap="round" opacity="0.4"/><line x1="766.27" y1="389.03" x2="773.57" y2="392.28" stroke="#E6B450" stroke-width="1" stroke-linecap="round" opacity="0.4"/><line x1="750.69" y1="402" x2="764.54" y2="410" stroke="#E6B450" stroke-width="2" stroke-linecap="round" opacity="0.8"/><line x1="747.24" y1="421.98" x2="753.71" y2="426.68" stroke="#E6B450" stroke-width="1" stroke-linecap="round" opacity="0.4"/><line x1="735.25" y1="436.78" x2="741.2" y2="442.13" stroke="#E6B450" stroke-width="1" stroke-linecap="round" opacity="0.4"/><line x1="721.78" y1="450.25" x2="727.13" y2="456.2" stroke="#E6B450" stroke-width="1" stroke-linecap="round" opacity="0.4"/><line x1="706.98" y1="462.24" x2="711.68" y2="468.71" stroke="#E6B450" stroke-width="1" stroke-linecap="round" opacity="0.4"/><line x1="687" y1="465.69" x2="695" y2="479.54" stroke="#E6B450" stroke-width="2" stroke-linecap="round" opacity="0.8"/><line x1="674.03" y1="481.27" x2="677.28" y2="488.57" stroke="#E6B450" stroke-width="1" stroke-linecap="round" opacity="0.4"/><line x1="656.24" y1="488.09" x2="658.71" y2="495.7" stroke="#E6B450" stroke-width="1" stroke-linecap="round" opacity="0.4"/><line x1="637.84" y1="493.02" x2="639.5" y2="500.85" stroke="#E6B450" stroke-width="1" stroke-linecap="round" opacity="0.4"/><line x1="619.02" y1="496" x2="619.86" y2="503.96" stroke="#E6B450" stroke-width="1" stroke-linecap="round" opacity="0.4"/><line x1="600" y1="489" x2="600" y2="505" stroke="#E6B450" stroke-width="2" stroke-linecap="round" opacity="0.8"/><line x1="580.98" y1="496" x2="580.14" y2="503.96" stroke="#E6B450" stroke-width="1" stroke-linecap="round" opacity="0.4"/><line x1="562.16" y1="493.02" x2="560.5" y2="500.85" stroke="#E6B450" stroke-width="1" stroke-linecap="round" opacity="0.4"/><line x1="543.76" y1="488.09" x2="541.29" y2="495.7" stroke="#E6B450" stroke-width="1" stroke-linecap="round" opacity="0.4"/><line x1="525.97" y1="481.27" x2="522.72" y2="488.57" stroke="#E6B450" stroke-width="1" stroke-linecap="round" opacity="0.4"/><line x1="513" y1="465.69" x2="505" y2="479.54" stroke="#E6B450" stroke-width="2" stroke-linecap="round" opacity="0.8"/><line x1="493.02" y1="462.24" x2="488.32" y2="468.71" stroke="#E6B450" stroke-width="1" stroke-linecap="round" opacity="0.4"/><line x1="478.22" y1="450.25" x2="472.87" y2="456.2" stroke="#E6B450" stroke-width="1" stroke-linecap="round" opacity="0.4"/><line x1="464.75" y1="436.78" x2="458.8" y2="442.13" stroke="#E6B450" stroke-width="1" stroke-linecap="round" opacity="0.4"/><line x1="452.76" y1="421.98" x2="446.29" y2="426.68" stroke="#E6B450" stroke-width="1" stroke-linecap="round" opacity="0.4"/><line x1="449.31" y1="402" x2="435.46" y2="410" stroke="#E6B450" stroke-width="2" stroke-linecap="round" opacity="0.8"/><line x1="433.73" y1="389.03" x2="426.43" y2="392.28" stroke="#E6B450" stroke-width="1" stroke-linecap="round" opacity="0.4"/><line x1="426.91" y1="371.24" x2="419.3" y2="373.71" stroke="#E6B450" stroke-width="1" stroke-linecap="round" opacity="0.4"/><line x1="421.98" y1="352.84" x2="414.15" y2="354.5" stroke="#E6B450" stroke-width="1" stroke-linecap="round" opacity="0.4"/><line x1="419" y1="334.02" x2="411.04" y2="334.86" stroke="#E6B450" stroke-width="1" stroke-linecap="round" opacity="0.4"/><line x1="426" y1="315" x2="410" y2="315" stroke="#E6B450" stroke-width="2" stroke-linecap="round" opacity="0.8"/><line x1="419" y1="295.98" x2="411.04" y2="295.14" stroke="#E6B450" stroke-width="1" stroke-linecap="round" opacity="0.4"/><line x1="421.98" y1="277.16" x2="414.15" y2="275.5" stroke="#E6B450" stroke-width="1" stroke-linecap="round" opacity="0.4"/><line x1="426.91" y1="258.76" x2="419.3" y2="256.29" stroke="#E6B450" stroke-width="1" stroke-linecap="round" opacity="0.4"/><line x1="433.73" y1="240.97" x2="426.43" y2="237.72" stroke="#E6B450" stroke-width="1" stroke-linecap="round" opacity="0.4"/><line x1="449.31" y1="228" x2="435.46" y2="220" stroke="#E6B450" stroke-width="2" stroke-linecap="round" opacity="0.8"/><line x1="452.76" y1="208.02" x2="446.29" y2="203.32" stroke="#E6B450" stroke-width="1" stroke-linecap="round" opacity="0.4"/><line x1="464.75" y1="193.22" x2="458.8" y2="187.87" stroke="#E6B450" stroke-width="1" stroke-linecap="round" opacity="0.4"/><line x1="478.22" y1="179.75" x2="472.87" y2="173.8" stroke="#E6B450" stroke-width="1" stroke-linecap="round" opacity="0.4"/><line x1="493.02" y1="167.76" x2="488.32" y2="161.29" stroke="#E6B450" stroke-width="1" stroke-linecap="round" opacity="0.4"/><line x1="513" y1="164.31" x2="505" y2="150.46" stroke="#E6B450" stroke-width="2" stroke-linecap="round" opacity="0.8"/><line x1="525.97" y1="148.73" x2="522.72" y2="141.43" stroke="#E6B450" stroke-width="1" stroke-linecap="round" opacity="0.4"/><line x1="543.76" y1="141.91" x2="541.29" y2="134.3" stroke="#E6B450" stroke-width="1" stroke-linecap="round" opacity="0.4"/><line x1="562.16" y1="136.98" x2="560.5" y2="129.15" stroke="#E6B450" stroke-width="1" stroke-linecap="round" opacity="0.4"/><line x1="580.98" y1="134" x2="580.14" y2="126.04" stroke="#E6B450" stroke-width="1" stroke-linecap="round" opacity="0.4"/><path d="M 600 155 A 160 160 0 0 1 737.56 396.72" fill="none" stroke="#E6B450" stroke-width="6" stroke-linecap="round" opacity=".9"/><line x1="600" y1="315" x2="600" y2="205" stroke="#F4ECDD" stroke-width="4" stroke-linecap="round" opacity="0.9"/><line x1="600" y1="315" x2="686" y2="345" stroke="#F4ECDD" stroke-width="3" stroke-linecap="round" opacity="0.7"/><circle cx="600" cy="315" r="7" fill="#E6B450" opacity="1"/>
  <rect x="0" y="0" width="1200" height="630" filter="url(#grain)" opacity="0.05" style="mix-blend-mode:overlay"/>
  <rect x="14" y="14" width="1172" height="602" rx="20" fill="none" stroke="rgba(245,232,210,0.10)" stroke-width="1"/>
  <g transform="translate(1140 570) scale(0.30)" opacity="0.9"><path d="M50 2 C53 30 70 47 98 50 C70 53 53 70 50 98 C47 70 30 53 2 50 C30 47 47 30 50 2 Z" fill="#E6B450"/></g>
</svg>