<svg viewBox="0 0 1200 630" width="1200" height="630" xmlns="http://www.w3.org/2000/svg" role="img">
  <defs>
    <radialGradient id="glow" cx="56.65%" cy="20%" r="90%">
      <stop offset="0%" stop-color="#1B140C"/>
      <stop offset="46%" stop-color="#0A0807"/>
      <stop offset="100%" stop-color="#060504"/>
    </radialGradient>
    <radialGradient id="bloom" cx="50%" cy="50%" r="50%">
      <stop offset="0%" stop-color="#E6B450" stop-opacity="0.55"/>
      <stop offset="55%" stop-color="#E6B450" stop-opacity="0.12"/>
      <stop offset="100%" stop-color="#E6B450" stop-opacity="0"/>
    </radialGradient>
    <linearGradient id="leak" x1="0" y1="0" x2="1" y2="1">
      <stop offset="0%" stop-color="#C8852F" stop-opacity="0.30"/>
      <stop offset="40%" stop-color="#0A0807" stop-opacity="0.2"/>
      <stop offset="100%" stop-color="#060504" stop-opacity="0.1"/>
    </linearGradient>
    <linearGradient id="vgrain" x1="0" y1="0" x2="0" y2="1">
      <stop offset="0%" stop-color="#C8852F" stop-opacity="0.22"/>
      <stop offset="60%" stop-color="#0A0807"/>
      <stop offset="100%" stop-color="#060504"/>
    </linearGradient>
    <filter id="grain"><feTurbulence type="fractalNoise" baseFrequency="0.9" numOctaves="2" stitchTiles="stitch"/>
      <feColorMatrix type="saturate" values="0"/></filter>
  </defs>
  <rect x="0" y="0" width="1200" height="630" fill="url(#glow)"/>
  <line x1="120" y1="245" x2="530" y2="315" stroke="#F4ECDD" stroke-width="2.4" stroke-linecap="round" opacity="0.7"/><polygon points="600,225 522,385 678,385" fill="rgba(244,236,221,0.05)" stroke="#F4ECDD" stroke-width="2" opacity=".7"/><line x1="640" y1="315" x2="1080" y2="285" stroke="#F0CF8C" stroke-width="5" stroke-linecap="round" opacity="0.8"/><line x1="640" y1="315" x2="1080" y2="301" stroke="#E6B450" stroke-width="5" stroke-linecap="round" opacity="0.8"/><line x1="640" y1="315" x2="1080" y2="317" stroke="#D9663C" stroke-width="5" stroke-linecap="round" opacity="0.8"/><line x1="640" y1="315" x2="1080" y2="333" stroke="#C8852F" stroke-width="5" stroke-linecap="round" opacity="0.8"/><line x1="640" y1="315" x2="1080" y2="349" stroke="#8A6BA0" stroke-width="5" stroke-linecap="round" opacity="0.8"/><line x1="640" y1="315" x2="1080" y2="365" stroke="#6E84A3" stroke-width="5" stroke-linecap="round" opacity="0.8"/>
  <rect x="0" y="0" width="1200" height="630" filter="url(#grain)" opacity="0.05" style="mix-blend-mode:overlay"/>
  <rect x="14" y="14" width="1172" height="602" rx="20" fill="none" stroke="rgba(245,232,210,0.10)" stroke-width="1"/>
  <g transform="translate(1140 570) scale(0.30)" opacity="0.9"><path d="M50 2 C53 30 70 47 98 50 C70 53 53 70 50 98 C47 70 30 53 2 50 C30 47 47 30 50 2 Z" fill="#E6B450"/></g>
</svg>