<svg viewBox="0 0 1200 630" width="1200" height="630" xmlns="http://www.w3.org/2000/svg" role="img">
  <defs>
    <radialGradient id="glow" cx="42.18%" cy="20%" r="90%">
      <stop offset="0%" stop-color="#1B140C"/>
      <stop offset="46%" stop-color="#0A0807"/>
      <stop offset="100%" stop-color="#060504"/>
    </radialGradient>
    <radialGradient id="bloom" cx="50%" cy="50%" r="50%">
      <stop offset="0%" stop-color="#E6B450" stop-opacity="0.55"/>
      <stop offset="55%" stop-color="#E6B450" stop-opacity="0.12"/>
      <stop offset="100%" stop-color="#E6B450" stop-opacity="0"/>
    </radialGradient>
    <linearGradient id="leak" x1="0" y1="0" x2="1" y2="1">
      <stop offset="0%" stop-color="#D9663C" stop-opacity="0.30"/>
      <stop offset="40%" stop-color="#0A0807" stop-opacity="0.2"/>
      <stop offset="100%" stop-color="#060504" stop-opacity="0.1"/>
    </linearGradient>
    <linearGradient id="vgrain" x1="0" y1="0" x2="0" y2="1">
      <stop offset="0%" stop-color="#D9663C" stop-opacity="0.22"/>
      <stop offset="60%" stop-color="#0A0807"/>
      <stop offset="100%" stop-color="#060504"/>
    </linearGradient>
    <filter id="grain"><feTurbulence type="fractalNoise" baseFrequency="0.9" numOctaves="2" stitchTiles="stitch"/>
      <feColorMatrix type="saturate" values="0"/></filter>
  </defs>
  <rect x="0" y="0" width="1200" height="630" fill="url(#glow)"/>
  <rect x="370" y="185" width="460" height="280" rx="26" fill="rgba(244,236,221,0.04)" stroke="#E6B450" stroke-width="2.4" opacity="1"/><rect x="410" y="159" width="150" height="34" rx="8" fill="rgba(230,180,80,0.10)" stroke="#E6B450" stroke-width="1.8" opacity="1"/><circle cx="600" cy="339" r="92" fill="none" stroke="#E6B450" stroke-width="2.4" opacity="1"/><circle cx="600" cy="339" r="64" fill="none" stroke="#E6B450" stroke-width="1.8" opacity="0.7"/><circle cx="600" cy="339" r="34" fill="rgba(230,180,80,0.12)" stroke="#E6B450" stroke-width="1.6" opacity="1"/><circle cx="582" cy="319" r="12" fill="#F4ECDD" opacity="0.5"/><rect x="402" y="213" width="70" height="46" rx="8" fill="none" stroke="#E6B450" stroke-width="1.8" opacity="0.8"/><circle cx="760" cy="237" r="22" fill="rgba(244,236,221,0.10)" stroke="#E6B450" stroke-width="1.8" opacity="1"/><rect x="680" y="405" width="70" height="26" rx="6" fill="#E6B450" opacity="0.5"/>
  <rect x="0" y="0" width="1200" height="630" filter="url(#grain)" opacity="0.05" style="mix-blend-mode:overlay"/>
  <rect x="14" y="14" width="1172" height="602" rx="20" fill="none" stroke="rgba(245,232,210,0.10)" stroke-width="1"/>
  <g transform="translate(1140 570) scale(0.30)" opacity="0.9"><path d="M50 2 C53 30 70 47 98 50 C70 53 53 70 50 98 C47 70 30 53 2 50 C30 47 47 30 50 2 Z" fill="#E6B450"/></g>
</svg>