<svg viewBox="0 0 1200 630" width="1200" height="630" xmlns="http://www.w3.org/2000/svg" role="img">
  <defs>
    <radialGradient id="glow" cx="60.97%" cy="20%" r="90%">
      <stop offset="0%" stop-color="#1B140C"/>
      <stop offset="46%" stop-color="#0A0807"/>
      <stop offset="100%" stop-color="#060504"/>
    </radialGradient>
    <radialGradient id="bloom" cx="50%" cy="50%" r="50%">
      <stop offset="0%" stop-color="#EBC169" stop-opacity="0.55"/>
      <stop offset="55%" stop-color="#EBC169" stop-opacity="0.12"/>
      <stop offset="100%" stop-color="#EBC169" stop-opacity="0"/>
    </radialGradient>
    <linearGradient id="leak" x1="0" y1="0" x2="1" y2="1">
      <stop offset="0%" stop-color="#B98A4A" stop-opacity="0.30"/>
      <stop offset="40%" stop-color="#0A0807" stop-opacity="0.2"/>
      <stop offset="100%" stop-color="#060504" stop-opacity="0.1"/>
    </linearGradient>
    <linearGradient id="vgrain" x1="0" y1="0" x2="0" y2="1">
      <stop offset="0%" stop-color="#B98A4A" stop-opacity="0.22"/>
      <stop offset="60%" stop-color="#0A0807"/>
      <stop offset="100%" stop-color="#060504"/>
    </linearGradient>
    <filter id="grain"><feTurbulence type="fractalNoise" baseFrequency="0.9" numOctaves="2" stitchTiles="stitch"/>
      <feColorMatrix type="saturate" values="0"/></filter>
  </defs>
  <rect x="0" y="0" width="1200" height="630" fill="url(#glow)"/>
  <g transform="rotate(-8.39 600.0 315.0)"><rect x="10" y="195" width="1180" height="240" rx="14" fill="rgba(230,180,80,0.05)" stroke="#EBC169" stroke-width="2.5" opacity="1"/><rect x="25" y="211" width="22" height="30" rx="5" fill="none" stroke="#EBC169" stroke-width="1.6" opacity="0.55"/><rect x="25" y="389" width="22" height="30" rx="5" fill="none" stroke="#EBC169" stroke-width="1.6" opacity="0.55"/><rect x="100.2" y="211" width="22" height="30" rx="5" fill="none" stroke="#EBC169" stroke-width="1.6" opacity="0.55"/><rect x="100.2" y="389" width="22" height="30" rx="5" fill="none" stroke="#EBC169" stroke-width="1.6" opacity="0.55"/><rect x="175.4" y="211" width="22" height="30" rx="5" fill="none" stroke="#EBC169" stroke-width="1.6" opacity="0.55"/><rect x="175.4" y="389" width="22" height="30" rx="5" fill="none" stroke="#EBC169" stroke-width="1.6" opacity="0.55"/><rect x="250.6" y="211" width="22" height="30" rx="5" fill="none" stroke="#EBC169" stroke-width="1.6" opacity="0.55"/><rect x="250.6" y="389" width="22" height="30" rx="5" fill="none" stroke="#EBC169" stroke-width="1.6" opacity="0.55"/><rect x="325.8" y="211" width="22" height="30" rx="5" fill="none" stroke="#EBC169" stroke-width="1.6" opacity="0.55"/><rect x="325.8" y="389" width="22" height="30" rx="5" fill="none" stroke="#EBC169" stroke-width="1.6" opacity="0.55"/><rect x="401" y="211" width="22" height="30" rx="5" fill="none" stroke="#EBC169" stroke-width="1.6" opacity="0.55"/><rect x="401" y="389" width="22" height="30" rx="5" fill="none" stroke="#EBC169" stroke-width="1.6" opacity="0.55"/><rect x="476.2" y="211" width="22" height="30" rx="5" fill="none" stroke="#EBC169" stroke-width="1.6" opacity="0.55"/><rect x="476.2" y="389" width="22" height="30" rx="5" fill="none" stroke="#EBC169" stroke-width="1.6" opacity="0.55"/><rect x="551.4" y="211" width="22" height="30" rx="5" fill="none" stroke="#EBC169" stroke-width="1.6" opacity="0.55"/><rect x="551.4" y="389" width="22" height="30" rx="5" fill="none" stroke="#EBC169" stroke-width="1.6" opacity="0.55"/><rect x="626.6" y="211" width="22" height="30" rx="5" fill="none" stroke="#EBC169" stroke-width="1.6" opacity="0.55"/><rect x="626.6" y="389" width="22" height="30" rx="5" fill="none" stroke="#EBC169" stroke-width="1.6" opacity="0.55"/><rect x="701.8" y="211" width="22" height="30" rx="5" fill="none" stroke="#EBC169" stroke-width="1.6" opacity="0.55"/><rect x="701.8" y="389" width="22" height="30" rx="5" fill="none" stroke="#EBC169" stroke-width="1.6" opacity="0.55"/><rect x="777" y="211" width="22" height="30" rx="5" fill="none" stroke="#EBC169" stroke-width="1.6" opacity="0.55"/><rect x="777" y="389" width="22" height="30" rx="5" fill="none" stroke="#EBC169" stroke-width="1.6" opacity="0.55"/><rect x="852.2" y="211" width="22" height="30" rx="5" fill="none" stroke="#EBC169" stroke-width="1.6" opacity="0.55"/><rect x="852.2" y="389" width="22" height="30" rx="5" fill="none" stroke="#EBC169" stroke-width="1.6" opacity="0.55"/><rect x="927.4" y="211" width="22" height="30" rx="5" fill="none" stroke="#EBC169" stroke-width="1.6" opacity="0.55"/><rect x="927.4" y="389" width="22" height="30" rx="5" fill="none" stroke="#EBC169" stroke-width="1.6" opacity="0.55"/><rect x="1002.6" y="211" width="22" height="30" rx="5" fill="none" stroke="#EBC169" stroke-width="1.6" opacity="0.55"/><rect x="1002.6" y="389" width="22" height="30" rx="5" fill="none" stroke="#EBC169" stroke-width="1.6" opacity="0.55"/><rect x="1077.8" y="211" width="22" height="30" rx="5" fill="none" stroke="#EBC169" stroke-width="1.6" opacity="0.55"/><rect x="1077.8" y="389" width="22" height="30" rx="5" fill="none" stroke="#EBC169" stroke-width="1.6" opacity="0.55"/><rect x="1153" y="211" width="22" height="30" rx="5" fill="none" stroke="#EBC169" stroke-width="1.6" opacity="0.55"/><rect x="1153" y="389" width="22" height="30" rx="5" fill="none" stroke="#EBC169" stroke-width="1.6" opacity="0.55"/><rect x="76" y="255" width="200" height="120" rx="4" fill="#EBC169" opacity="0.16"/><rect x="76" y="255" width="200" height="120" rx="4" fill="none" stroke="#F4ECDD" stroke-width="1" opacity="0.18"/><rect x="288" y="255" width="200" height="120" rx="4" fill="#EBC169" opacity="0.22"/><rect x="288" y="255" width="200" height="120" rx="4" fill="none" stroke="#F4ECDD" stroke-width="1" opacity="0.18"/><rect x="500" y="255" width="200" height="120" rx="4" fill="#EBC169" opacity="0.1"/><rect x="500" y="255" width="200" height="120" rx="4" fill="none" stroke="#F4ECDD" stroke-width="1" opacity="0.18"/><rect x="712" y="255" width="200" height="120" rx="4" fill="#EBC169" opacity="0.16"/><rect x="712" y="255" width="200" height="120" rx="4" fill="none" stroke="#F4ECDD" stroke-width="1" opacity="0.18"/><rect x="924" y="255" width="200" height="120" rx="4" fill="#EBC169" opacity="0.22"/><rect x="924" y="255" width="200" height="120" rx="4" fill="none" stroke="#F4ECDD" stroke-width="1" opacity="0.18"/></g><circle cx="600" cy="315" r="52" fill="rgba(10,8,7,0.85)" stroke="#EBC169" stroke-width="2.5" opacity="1"/><path d="M584 291 L630 315 L584 339 Z" fill="#EBC169"/>
  <rect x="0" y="0" width="1200" height="630" filter="url(#grain)" opacity="0.05" style="mix-blend-mode:overlay"/>
  <rect x="14" y="14" width="1172" height="602" rx="20" fill="none" stroke="rgba(245,232,210,0.10)" stroke-width="1"/>
  <g transform="translate(1140 570) scale(0.30)" opacity="0.9"><path d="M50 2 C53 30 70 47 98 50 C70 53 53 70 50 98 C47 70 30 53 2 50 C30 47 47 30 50 2 Z" fill="#EBC169"/></g>
</svg>