<svg viewBox="0 0 1200 630" width="1200" height="630" xmlns="http://www.w3.org/2000/svg" role="img">
  <defs>
    <radialGradient id="glow" cx="59.96%" cy="20%" r="90%">
      <stop offset="0%" stop-color="#1B140C"/>
      <stop offset="46%" stop-color="#0A0807"/>
      <stop offset="100%" stop-color="#060504"/>
    </radialGradient>
    <radialGradient id="bloom" cx="50%" cy="50%" r="50%">
      <stop offset="0%" stop-color="#E6B450" stop-opacity="0.55"/>
      <stop offset="55%" stop-color="#E6B450" stop-opacity="0.12"/>
      <stop offset="100%" stop-color="#E6B450" stop-opacity="0"/>
    </radialGradient>
    <linearGradient id="leak" x1="0" y1="0" x2="1" y2="1">
      <stop offset="0%" stop-color="#C8852F" stop-opacity="0.30"/>
      <stop offset="40%" stop-color="#0A0807" stop-opacity="0.2"/>
      <stop offset="100%" stop-color="#060504" stop-opacity="0.1"/>
    </linearGradient>
    <linearGradient id="vgrain" x1="0" y1="0" x2="0" y2="1">
      <stop offset="0%" stop-color="#C8852F" stop-opacity="0.22"/>
      <stop offset="60%" stop-color="#0A0807"/>
      <stop offset="100%" stop-color="#060504"/>
    </linearGradient>
    <filter id="grain"><feTurbulence type="fractalNoise" baseFrequency="0.9" numOctaves="2" stitchTiles="stitch"/>
      <feColorMatrix type="saturate" values="0"/></filter>
  </defs>
  <rect x="0" y="0" width="1200" height="630" fill="url(#glow)"/>
  <rect x="0" y="0" width="1200" height="630" fill="url(#vgrain)"/><circle cx="864" cy="264.6" r="168" fill="none" stroke="#E6B450" stroke-width="1.6" opacity="0.3"/><circle cx="864" cy="264.6" r="168" fill="url(#bloom)" opacity="0.5"/><circle cx="1129.94" cy="85.48" r="1.43" fill="#F4ECDD" opacity="0.08"/><circle cx="757.04" cy="89.75" r="1.9" fill="#F4ECDD" opacity="0.15"/><circle cx="263.12" cy="298.21" r="1.68" fill="#E6B450" opacity="0.18"/><circle cx="1101.71" cy="28.28" r="0.92" fill="#F4ECDD" opacity="0.22"/><circle cx="1077.15" cy="458.66" r="1.88" fill="#F4ECDD" opacity="0.09"/><circle cx="401.61" cy="392.47" r="1.5" fill="#E6B450" opacity="0.16"/><circle cx="332.69" cy="379.72" r="0.63" fill="#E6B450" opacity="0.16"/><circle cx="30.14" cy="434.47" r="1.23" fill="#F4ECDD" opacity="0.09"/><circle cx="111.87" cy="591.54" r="1.53" fill="#F4ECDD" opacity="0.11"/><circle cx="335.33" cy="2.29" r="0.73" fill="#F4ECDD" opacity="0.22"/><circle cx="995.78" cy="482.33" r="0.69" fill="#F4ECDD" opacity="0.16"/><circle cx="542.48" cy="125.9" r="1.39" fill="#F4ECDD" opacity="0.05"/><circle cx="772.12" cy="430.55" r="0.67" fill="#F4ECDD" opacity="0.2"/><circle cx="825.28" cy="463.01" r="1.99" fill="#F4ECDD" opacity="0.06"/><circle cx="305.77" cy="427.26" r="1.86" fill="#F4ECDD" opacity="0.07"/><circle cx="827.78" cy="66.41" r="1.63" fill="#F4ECDD" opacity="0.07"/><circle cx="248.16" cy="55.23" r="1.65" fill="#E6B450" opacity="0.08"/><circle cx="23.68" cy="405.68" r="1.12" fill="#F4ECDD" opacity="0.05"/><circle cx="696.02" cy="312.69" r="1.14" fill="#E6B450" opacity="0.07"/><circle cx="734.54" cy="114.99" r="1.24" fill="#F4ECDD" opacity="0.14"/><circle cx="907.69" cy="214.14" r="1.19" fill="#F4ECDD" opacity="0.1"/><circle cx="425.81" cy="348.82" r="0.73" fill="#F4ECDD" opacity="0.18"/><circle cx="138.11" cy="152.68" r="0.62" fill="#F4ECDD" opacity="0.18"/><circle cx="1101.38" cy="91.91" r="1.29" fill="#E6B450" opacity="0.13"/><circle cx="23.16" cy="442.11" r="1.15" fill="#F4ECDD" opacity="0.07"/><circle cx="353.11" cy="253.56" r="1.72" fill="#F4ECDD" opacity="0.09"/><circle cx="546.5" cy="538.67" r="0.64" fill="#F4ECDD" opacity="0.15"/><circle cx="534.75" cy="364.33" r="1.17" fill="#F4ECDD" opacity="0.12"/><circle cx="604.86" cy="552.6" r="1.66" fill="#F4ECDD" opacity="0.22"/><circle cx="1172.68" cy="259.01" r="1.71" fill="#F4ECDD" opacity="0.12"/><circle cx="981.02" cy="180.63" r="1.27" fill="#F4ECDD" opacity="0.19"/><circle cx="904.45" cy="186.6" r="1.26" fill="#F4ECDD" opacity="0.07"/><circle cx="729.9" cy="285.92" r="0.64" fill="#F4ECDD" opacity="0.17"/><circle cx="1141.37" cy="314.96" r="1.53" fill="#F4ECDD" opacity="0.11"/><circle cx="309.68" cy="221.95" r="0.99" fill="#F4ECDD" opacity="0.22"/><circle cx="938.99" cy="136.63" r="1.88" fill="#F4ECDD" opacity="0.14"/><circle cx="188.36" cy="0.6" r="0.99" fill="#E6B450" opacity="0.16"/><circle cx="983.16" cy="422.37" r="1.69" fill="#F4ECDD" opacity="0.21"/><circle cx="613.85" cy="360.21" r="0.77" fill="#E6B450" opacity="0.05"/><circle cx="776.38" cy="355.46" r="1.18" fill="#E6B450" opacity="0.21"/><circle cx="533.23" cy="158.49" r="1.32" fill="#F4ECDD" opacity="0.13"/><circle cx="9.4" cy="293.5" r="0.67" fill="#E6B450" opacity="0.18"/><circle cx="712.84" cy="168.93" r="1.58" fill="#F4ECDD" opacity="0.15"/><circle cx="392.96" cy="535.26" r="0.78" fill="#F4ECDD" opacity="0.12"/><circle cx="81.85" cy="10.5" r="0.95" fill="#E6B450" opacity="0.08"/><circle cx="552.77" cy="250.78" r="1.84" fill="#E6B450" opacity="0.13"/><circle cx="363.47" cy="410.74" r="1.52" fill="#F4ECDD" opacity="0.13"/><circle cx="1150.08" cy="612.47" r="1.69" fill="#F4ECDD" opacity="0.22"/><circle cx="1060.51" cy="12.67" r="1.92" fill="#F4ECDD" opacity="0.11"/><circle cx="86.21" cy="209.45" r="1.33" fill="#F4ECDD" opacity="0.2"/><circle cx="717.27" cy="582.62" r="0.7" fill="#F4ECDD" opacity="0.19"/><circle cx="712.21" cy="223.43" r="1.37" fill="#F4ECDD" opacity="0.06"/><circle cx="46.95" cy="562.23" r="1.58" fill="#F4ECDD" opacity="0.13"/><circle cx="316.05" cy="614.8" r="1.39" fill="#F4ECDD" opacity="0.17"/><circle cx="355.57" cy="445.48" r="0.83" fill="#F4ECDD" opacity="0.11"/><circle cx="649.84" cy="477.36" r="1.04" fill="#E6B450" opacity="0.13"/><circle cx="681.72" cy="627.04" r="0.8" fill="#F4ECDD" opacity="0.13"/><circle cx="176.63" cy="0.01" r="0.76" fill="#E6B450" opacity="0.16"/><circle cx="1087.68" cy="94.19" r="1.9" fill="#E6B450" opacity="0.13"/><circle cx="1024.86" cy="361.94" r="1.7" fill="#F4ECDD" opacity="0.1"/><circle cx="478.68" cy="468.59" r="0.64" fill="#E6B450" opacity="0.16"/><circle cx="488.63" cy="602.59" r="1.56" fill="#E6B450" opacity="0.07"/><circle cx="42.58" cy="498.78" r="0.62" fill="#E6B450" opacity="0.09"/><circle cx="942.24" cy="463.86" r="1.52" fill="#F4ECDD" opacity="0.18"/><circle cx="1136.3" cy="41.87" r="0.71" fill="#E6B450" opacity="0.19"/><circle cx="1097.25" cy="56.45" r="1.11" fill="#E6B450" opacity="0.16"/><circle cx="976.79" cy="224.81" r="1.62" fill="#F4ECDD" opacity="0.06"/><circle cx="279.74" cy="391.55" r="1.59" fill="#E6B450" opacity="0.16"/><circle cx="285.07" cy="203.38" r="0.82" fill="#F4ECDD" opacity="0.06"/><circle cx="763.56" cy="152.02" r="0.71" fill="#F4ECDD" opacity="0.14"/><circle cx="264.07" cy="77.23" r="1.8" fill="#F4ECDD" opacity="0.07"/><circle cx="995.67" cy="605" r="1.62" fill="#F4ECDD" opacity="0.2"/><circle cx="851.15" cy="595.37" r="1.05" fill="#F4ECDD" opacity="0.17"/><circle cx="1080.71" cy="314.51" r="1.59" fill="#F4ECDD" opacity="0.19"/><circle cx="616.83" cy="559.97" r="0.99" fill="#F4ECDD" opacity="0.1"/><circle cx="282.93" cy="609.62" r="1.53" fill="#E6B450" opacity="0.17"/><circle cx="500.29" cy="521.92" r="1.99" fill="#F4ECDD" opacity="0.1"/><circle cx="884.56" cy="437" r="1.43" fill="#F4ECDD" opacity="0.08"/><circle cx="191.96" cy="452.99" r="1.11" fill="#F4ECDD" opacity="0.07"/><circle cx="495.05" cy="364.92" r="1.51" fill="#F4ECDD" opacity="0.22"/><circle cx="169.14" cy="474.03" r="1.79" fill="#F4ECDD" opacity="0.05"/><circle cx="27.3" cy="333.92" r="0.9" fill="#F4ECDD" opacity="0.14"/><circle cx="621.73" cy="584.83" r="1.88" fill="#F4ECDD" opacity="0.15"/><circle cx="954.49" cy="406.37" r="1.63" fill="#E6B450" opacity="0.16"/><circle cx="235.41" cy="176.61" r="1.18" fill="#E6B450" opacity="0.22"/><circle cx="988.6" cy="259.55" r="0.78" fill="#F4ECDD" opacity="0.16"/><circle cx="1123.62" cy="529.77" r="1.19" fill="#F4ECDD" opacity="0.1"/><circle cx="180.89" cy="320.51" r="1.27" fill="#E6B450" opacity="0.18"/><circle cx="28.73" cy="221.6" r="1.91" fill="#F4ECDD" opacity="0.1"/><circle cx="1194.51" cy="467.86" r="1.17" fill="#F4ECDD" opacity="0.04"/><circle cx="1056.61" cy="181.82" r="0.7" fill="#F4ECDD" opacity="0.15"/><circle cx="966.86" cy="104.95" r="1.88" fill="#E6B450" opacity="0.2"/><circle cx="215.78" cy="318.16" r="1.67" fill="#E6B450" opacity="0.11"/><circle cx="446.67" cy="509.27" r="1.12" fill="#F4ECDD" opacity="0.16"/><circle cx="972.81" cy="1.1" r="0.72" fill="#F4ECDD" opacity="0.21"/><circle cx="224.34" cy="270.29" r="1.58" fill="#E6B450" opacity="0.09"/><circle cx="303.95" cy="90.84" r="1.14" fill="#F4ECDD" opacity="0.19"/><circle cx="1114.1" cy="8.91" r="0.7" fill="#F4ECDD" opacity="0.14"/><circle cx="752.03" cy="352.89" r="1" fill="#F4ECDD" opacity="0.07"/><circle cx="548.86" cy="628.98" r="0.8" fill="#E6B450" opacity="0.12"/><circle cx="1023.41" cy="438.59" r="1.39" fill="#F4ECDD" opacity="0.17"/><circle cx="1156.64" cy="540.56" r="1.13" fill="#F4ECDD" opacity="0.19"/><circle cx="631.94" cy="117.96" r="1.01" fill="#F4ECDD" opacity="0.18"/><circle cx="931.66" cy="535.6" r="1.8" fill="#E6B450" opacity="0.11"/><circle cx="950.76" cy="64.64" r="1.37" fill="#F4ECDD" opacity="0.08"/><circle cx="768.96" cy="329.99" r="0.91" fill="#F4ECDD" opacity="0.09"/><circle cx="387.51" cy="429.24" r="0.61" fill="#F4ECDD" opacity="0.13"/><circle cx="307.55" cy="608.2" r="1.07" fill="#F4ECDD" opacity="0.18"/><circle cx="904.32" cy="199.9" r="1.79" fill="#F4ECDD" opacity="0.05"/><circle cx="1089.26" cy="583.21" r="0.64" fill="#E6B450" opacity="0.11"/><circle cx="626.12" cy="296.56" r="1.14" fill="#F4ECDD" opacity="0.13"/><circle cx="748.28" cy="301.28" r="1.34" fill="#F4ECDD" opacity="0.17"/><circle cx="166.14" cy="88.69" r="1.26" fill="#F4ECDD" opacity="0.07"/><circle cx="1130.35" cy="581.3" r="1.52" fill="#F4ECDD" opacity="0.17"/><circle cx="536.53" cy="531.47" r="1.67" fill="#F4ECDD" opacity="0.17"/><circle cx="722.78" cy="306.2" r="1.41" fill="#F4ECDD" opacity="0.19"/><circle cx="72.74" cy="218.86" r="1.68" fill="#F4ECDD" opacity="0.13"/><circle cx="890.92" cy="598.01" r="1.66" fill="#F4ECDD" opacity="0.15"/><circle cx="130.53" cy="32.3" r="1.87" fill="#E6B450" opacity="0.21"/><circle cx="707.98" cy="459.64" r="1.41" fill="#F4ECDD" opacity="0.08"/><circle cx="952.72" cy="312.02" r="1.28" fill="#F4ECDD" opacity="0.08"/><circle cx="399.46" cy="61.98" r="1.1" fill="#E6B450" opacity="0.07"/><circle cx="29.1" cy="244.95" r="1.12" fill="#E6B450" opacity="0.21"/><circle cx="95.88" cy="127.36" r="0.63" fill="#F4ECDD" opacity="0.08"/><circle cx="1058.7" cy="199.61" r="1.09" fill="#F4ECDD" opacity="0.16"/><circle cx="1149.86" cy="339.48" r="0.91" fill="#F4ECDD" opacity="0.15"/><circle cx="581.98" cy="88" r="1.01" fill="#F4ECDD" opacity="0.1"/><circle cx="863.92" cy="523.85" r="1.62" fill="#F4ECDD" opacity="0.11"/><circle cx="270.68" cy="318.27" r="1.05" fill="#F4ECDD" opacity="0.19"/><circle cx="571.42" cy="613.08" r="1.49" fill="#E6B450" opacity="0.16"/><circle cx="174.11" cy="465.91" r="1.38" fill="#E6B450" opacity="0.1"/><circle cx="654.32" cy="376.19" r="1.74" fill="#F4ECDD" opacity="0.11"/><circle cx="861.73" cy="386.2" r="1.36" fill="#F4ECDD" opacity="0.12"/><circle cx="757.82" cy="258.16" r="1.63" fill="#F4ECDD" opacity="0.21"/><circle cx="262.46" cy="500.67" r="0.6" fill="#F4ECDD" opacity="0.05"/><circle cx="386.33" cy="291.35" r="0.97" fill="#E6B450" opacity="0.06"/><circle cx="936.65" cy="437.67" r="0.89" fill="#F4ECDD" opacity="0.07"/><circle cx="97.72" cy="605.1" r="0.74" fill="#F4ECDD" opacity="0.15"/><circle cx="388.84" cy="145.76" r="1.89" fill="#F4ECDD" opacity="0.04"/><circle cx="1181.44" cy="571.53" r="1.91" fill="#F4ECDD" opacity="0.06"/><circle cx="152.06" cy="83.75" r="1.64" fill="#F4ECDD" opacity="0.14"/><circle cx="123.53" cy="33.88" r="1.21" fill="#F4ECDD" opacity="0.06"/><circle cx="1055.01" cy="272.87" r="1.46" fill="#F4ECDD" opacity="0.22"/><circle cx="1146.54" cy="287.86" r="1.44" fill="#E6B450" opacity="0.08"/><circle cx="742.66" cy="216.5" r="1.05" fill="#F4ECDD" opacity="0.12"/><circle cx="456.32" cy="90.41" r="0.86" fill="#F4ECDD" opacity="0.13"/><circle cx="1086.57" cy="608.15" r="0.84" fill="#E6B450" opacity="0.05"/><circle cx="981.57" cy="220.68" r="1.79" fill="#E6B450" opacity="0.14"/><circle cx="294.96" cy="619.06" r="1.74" fill="#F4ECDD" opacity="0.2"/><circle cx="814.47" cy="415.96" r="0.77" fill="#E6B450" opacity="0.17"/><circle cx="1102.46" cy="392.18" r="1.9" fill="#E6B450" opacity="0.16"/><circle cx="1177.47" cy="614.84" r="1.66" fill="#F4ECDD" opacity="0.18"/><circle cx="521.65" cy="168.26" r="1.09" fill="#F4ECDD" opacity="0.1"/><circle cx="1096.89" cy="541.22" r="1.86" fill="#F4ECDD" opacity="0.17"/><circle cx="1021.7" cy="244.97" r="1.89" fill="#F4ECDD" opacity="0.17"/><circle cx="4.24" cy="591.06" r="1.98" fill="#F4ECDD" opacity="0.19"/><circle cx="298.57" cy="577.07" r="0.96" fill="#E6B450" opacity="0.1"/><circle cx="155.47" cy="175.68" r="1.63" fill="#F4ECDD" opacity="0.05"/><circle cx="440.37" cy="413.41" r="1.03" fill="#E6B450" opacity="0.14"/><circle cx="693.21" cy="92.92" r="0.65" fill="#F4ECDD" opacity="0.2"/><circle cx="136.18" cy="291.75" r="1.96" fill="#E6B450" opacity="0.16"/><circle cx="630.89" cy="492.43" r="0.79" fill="#F4ECDD" opacity="0.05"/><circle cx="877.97" cy="38.61" r="1.01" fill="#F4ECDD" opacity="0.11"/><circle cx="248.32" cy="293.9" r="1.24" fill="#F4ECDD" opacity="0.06"/><circle cx="1069.1" cy="502.44" r="0.71" fill="#F4ECDD" opacity="0.14"/><circle cx="981.03" cy="98.18" r="1.42" fill="#F4ECDD" opacity="0.11"/><circle cx="722.3" cy="280.09" r="1.1" fill="#F4ECDD" opacity="0.05"/><circle cx="337.34" cy="470.13" r="1.12" fill="#F4ECDD" opacity="0.21"/><circle cx="24.98" cy="513.48" r="1.9" fill="#F4ECDD" opacity="0.12"/><circle cx="44.54" cy="11.73" r="1.97" fill="#F4ECDD" opacity="0.06"/><circle cx="159.99" cy="538.3" r="1.35" fill="#E6B450" opacity="0.05"/><circle cx="608.64" cy="507.83" r="1.53" fill="#F4ECDD" opacity="0.06"/><circle cx="188.49" cy="407.95" r="0.88" fill="#F4ECDD" opacity="0.13"/><circle cx="595.94" cy="413.43" r="0.98" fill="#F4ECDD" opacity="0.11"/><circle cx="552.91" cy="282.58" r="0.64" fill="#F4ECDD" opacity="0.13"/><circle cx="569.37" cy="207.32" r="0.7" fill="#E6B450" opacity="0.18"/><circle cx="949.62" cy="371.39" r="1.48" fill="#F4ECDD" opacity="0.12"/><circle cx="938.37" cy="82.69" r="1.23" fill="#F4ECDD" opacity="0.13"/><circle cx="492.92" cy="314.95" r="1.06" fill="#F4ECDD" opacity="0.08"/><circle cx="617.23" cy="192.39" r="1.65" fill="#F4ECDD" opacity="0.19"/><circle cx="1014.22" cy="279.49" r="1.67" fill="#F4ECDD" opacity="0.09"/><circle cx="70.5" cy="581.59" r="1.39" fill="#E6B450" opacity="0.13"/><circle cx="733.41" cy="26.79" r="0.62" fill="#F4ECDD" opacity="0.1"/><circle cx="1076.66" cy="124.54" r="1.13" fill="#E6B450" opacity="0.12"/><circle cx="1094.93" cy="492.42" r="1.89" fill="#F4ECDD" opacity="0.17"/><circle cx="27.54" cy="575.81" r="1.53" fill="#F4ECDD" opacity="0.09"/><circle cx="464.81" cy="20.47" r="0.77" fill="#F4ECDD" opacity="0.17"/><circle cx="238.72" cy="561.32" r="1" fill="#E6B450" opacity="0.21"/><circle cx="423.51" cy="469.35" r="0.62" fill="#F4ECDD" opacity="0.12"/><circle cx="324.43" cy="157.86" r="0.94" fill="#F4ECDD" opacity="0.13"/><circle cx="563.6" cy="419.06" r="0.76" fill="#F4ECDD" opacity="0.08"/><circle cx="1045.13" cy="475.31" r="1.8" fill="#F4ECDD" opacity="0.07"/><circle cx="138.07" cy="158.59" r="1.14" fill="#F4ECDD" opacity="0.07"/><circle cx="117.3" cy="561.81" r="1.58" fill="#E6B450" opacity="0.05"/><circle cx="624.48" cy="16.41" r="1.16" fill="#F4ECDD" opacity="0.07"/><circle cx="626.92" cy="187.93" r="0.66" fill="#E6B450" opacity="0.17"/><circle cx="959.93" cy="582.8" r="1.84" fill="#E6B450" opacity="0.1"/><circle cx="460.21" cy="315.37" r="1.64" fill="#F4ECDD" opacity="0.1"/><circle cx="1081.6" cy="226.29" r="1.56" fill="#F4ECDD" opacity="0.13"/><circle cx="249.76" cy="617.77" r="0.68" fill="#E6B450" opacity="0.11"/><circle cx="640.1" cy="540.96" r="0.61" fill="#E6B450" opacity="0.04"/><circle cx="1067.26" cy="105.17" r="0.83" fill="#F4ECDD" opacity="0.08"/><circle cx="890.9" cy="351.74" r="1.13" fill="#F4ECDD" opacity="0.14"/><circle cx="922.02" cy="98.35" r="1.87" fill="#E6B450" opacity="0.11"/><circle cx="633.82" cy="612.9" r="1.03" fill="#E6B450" opacity="0.12"/><circle cx="1121.72" cy="415.17" r="1.83" fill="#E6B450" opacity="0.16"/><circle cx="999.9" cy="552.09" r="1.59" fill="#F4ECDD" opacity="0.13"/><circle cx="424.62" cy="220.62" r="1.88" fill="#F4ECDD" opacity="0.09"/><circle cx="277.83" cy="615.2" r="1.93" fill="#F4ECDD" opacity="0.07"/><circle cx="153.02" cy="626.48" r="1.16" fill="#F4ECDD" opacity="0.13"/><circle cx="615.62" cy="207.47" r="1.69" fill="#E6B450" opacity="0.06"/><circle cx="1193.31" cy="171.87" r="1.89" fill="#F4ECDD" opacity="0.15"/><circle cx="1019.32" cy="261.03" r="0.75" fill="#E6B450" opacity="0.11"/><circle cx="1010.01" cy="71.19" r="0.78" fill="#E6B450" opacity="0.11"/><circle cx="931.41" cy="537.39" r="0.99" fill="#F4ECDD" opacity="0.2"/><circle cx="133.94" cy="606.74" r="1.64" fill="#F4ECDD" opacity="0.19"/><circle cx="334.43" cy="134.64" r="1.33" fill="#E6B450" opacity="0.16"/><circle cx="282.62" cy="403.04" r="1.23" fill="#E6B450" opacity="0.21"/><circle cx="617.09" cy="380.09" r="1.76" fill="#E6B450" opacity="0.1"/><circle cx="627.84" cy="19.93" r="1.47" fill="#F4ECDD" opacity="0.09"/><circle cx="164.45" cy="405.05" r="1.07" fill="#F4ECDD" opacity="0.18"/><circle cx="521.6" cy="151.91" r="1.92" fill="#F4ECDD" opacity="0.2"/><circle cx="234" cy="345.19" r="1" fill="#E6B450" opacity="0.06"/><circle cx="296.69" cy="184.31" r="1.61" fill="#E6B450" opacity="0.1"/><circle cx="393.37" cy="202.32" r="1.3" fill="#F4ECDD" opacity="0.07"/><circle cx="872.99" cy="494.71" r="1.84" fill="#F4ECDD" opacity="0.16"/><circle cx="561.19" cy="228" r="0.76" fill="#F4ECDD" opacity="0.21"/><circle cx="341.9" cy="54.85" r="0.77" fill="#F4ECDD" opacity="0.16"/><circle cx="165.17" cy="158.19" r="1.35" fill="#F4ECDD" opacity="0.09"/><circle cx="748.21" cy="472.58" r="1.06" fill="#F4ECDD" opacity="0.11"/><circle cx="156.63" cy="429.78" r="0.89" fill="#F4ECDD" opacity="0.14"/><circle cx="366.9" cy="483.6" r="1.17" fill="#F4ECDD" opacity="0.14"/><circle cx="756.78" cy="126.49" r="0.7" fill="#E6B450" opacity="0.17"/><circle cx="720.34" cy="292.11" r="1.88" fill="#E6B450" opacity="0.16"/><circle cx="879.96" cy="179.96" r="1.24" fill="#F4ECDD" opacity="0.06"/><circle cx="105.78" cy="286.02" r="1.85" fill="#E6B450" opacity="0.04"/><circle cx="415.44" cy="354.53" r="1.96" fill="#F4ECDD" opacity="0.13"/><circle cx="999.95" cy="280.23" r="1.84" fill="#E6B450" opacity="0.04"/><circle cx="985.53" cy="497.87" r="1.37" fill="#F4ECDD" opacity="0.18"/><circle cx="683.34" cy="370.26" r="1.4" fill="#E6B450" opacity="0.15"/><circle cx="565.28" cy="143.94" r="1.13" fill="#E6B450" opacity="0.08"/><circle cx="409.24" cy="604.63" r="1.74" fill="#F4ECDD" opacity="0.16"/><circle cx="338.74" cy="134.92" r="1.87" fill="#F4ECDD" opacity="0.12"/><circle cx="525.5" cy="182.58" r="1.9" fill="#F4ECDD" opacity="0.15"/><circle cx="200.62" cy="75.12" r="0.68" fill="#E6B450" opacity="0.17"/><circle cx="534.42" cy="321.77" r="1.22" fill="#F4ECDD" opacity="0.18"/><circle cx="854.75" cy="71.46" r="0.76" fill="#F4ECDD" opacity="0.08"/><circle cx="150.37" cy="522.34" r="1.58" fill="#F4ECDD" opacity="0.11"/><circle cx="778.63" cy="319.96" r="1.16" fill="#F4ECDD" opacity="0.19"/><circle cx="1068.36" cy="57.86" r="1.22" fill="#F4ECDD" opacity="0.1"/><circle cx="83.99" cy="93.59" r="0.71" fill="#F4ECDD" opacity="0.1"/><circle cx="160.02" cy="218.11" r="1.1" fill="#F4ECDD" opacity="0.08"/><circle cx="147.15" cy="542.85" r="1.28" fill="#E6B450" opacity="0.22"/><circle cx="357.73" cy="117.46" r="1.64" fill="#E6B450" opacity="0.07"/><circle cx="807.8" cy="313.1" r="0.93" fill="#F4ECDD" opacity="0.07"/><circle cx="57.68" cy="353.48" r="1.63" fill="#F4ECDD" opacity="0.05"/><circle cx="493.37" cy="475.48" r="1" fill="#E6B450" opacity="0.17"/><circle cx="345" cy="363.66" r="0.92" fill="#F4ECDD" opacity="0.14"/><circle cx="961.27" cy="224.34" r="1.62" fill="#F4ECDD" opacity="0.17"/><circle cx="221.52" cy="413.08" r="1.35" fill="#E6B450" opacity="0.18"/><circle cx="1182.6" cy="157.26" r="0.66" fill="#F4ECDD" opacity="0.05"/><circle cx="609.78" cy="482.49" r="1.79" fill="#E6B450" opacity="0.13"/><circle cx="231.22" cy="384.33" r="1.42" fill="#E6B450" opacity="0.15"/><circle cx="783.36" cy="535.18" r="0.66" fill="#F4ECDD" opacity="0.2"/><circle cx="984.6" cy="213.79" r="0.87" fill="#E6B450" opacity="0.19"/><circle cx="891.9" cy="408.01" r="0.78" fill="#E6B450" opacity="0.07"/><circle cx="406.74" cy="80.03" r="1.63" fill="#F4ECDD" opacity="0.14"/><circle cx="144.42" cy="216.98" r="1.54" fill="#F4ECDD" opacity="0.18"/><circle cx="996.32" cy="446.57" r="1.54" fill="#F4ECDD" opacity="0.18"/><circle cx="1168.54" cy="115.47" r="1.24" fill="#F4ECDD" opacity="0.04"/><circle cx="581.7" cy="544.35" r="1.5" fill="#F4ECDD" opacity="0.08"/><circle cx="830.77" cy="400.52" r="1.98" fill="#E6B450" opacity="0.13"/><circle cx="342.75" cy="438.5" r="0.63" fill="#F4ECDD" opacity="0.1"/><circle cx="942.85" cy="501.14" r="1.95" fill="#F4ECDD" opacity="0.18"/><circle cx="400.05" cy="620.03" r="1.51" fill="#F4ECDD" opacity="0.04"/><circle cx="482.49" cy="54.82" r="1.88" fill="#F4ECDD" opacity="0.18"/><circle cx="286.97" cy="183.27" r="1.57" fill="#F4ECDD" opacity="0.05"/><circle cx="29.56" cy="300.62" r="0.65" fill="#E6B450" opacity="0.04"/><circle cx="853.35" cy="602.13" r="1.15" fill="#F4ECDD" opacity="0.13"/><circle cx="738.16" cy="254.78" r="1.06" fill="#E6B450" opacity="0.11"/><circle cx="242.29" cy="578.35" r="0.77" fill="#F4ECDD" opacity="0.16"/><circle cx="997.04" cy="552.01" r="1.5" fill="#F4ECDD" opacity="0.1"/><circle cx="872.38" cy="450.39" r="1.99" fill="#E6B450" opacity="0.06"/><circle cx="838.15" cy="470.32" r="1.85" fill="#F4ECDD" opacity="0.12"/><circle cx="322.64" cy="236.6" r="1.17" fill="#E6B450" opacity="0.13"/><circle cx="597.77" cy="541.44" r="1.93" fill="#F4ECDD" opacity="0.04"/><circle cx="1022.12" cy="110.77" r="0.68" fill="#F4ECDD" opacity="0.11"/><circle cx="925.68" cy="25.8" r="1.99" fill="#F4ECDD" opacity="0.08"/><circle cx="737.7" cy="599.07" r="1.45" fill="#F4ECDD" opacity="0.06"/><circle cx="559.04" cy="583.8" r="0.95" fill="#E6B450" opacity="0.22"/><circle cx="808.65" cy="28.78" r="1.27" fill="#F4ECDD" opacity="0.21"/><circle cx="743.41" cy="8.01" r="1.03" fill="#E6B450" opacity="0.15"/><circle cx="200.89" cy="125.35" r="1.8" fill="#E6B450" opacity="0.19"/><circle cx="878.3" cy="485.61" r="0.76" fill="#F4ECDD" opacity="0.14"/><circle cx="731.44" cy="627.54" r="0.68" fill="#F4ECDD" opacity="0.17"/><circle cx="761.99" cy="594.9" r="1.74" fill="#F4ECDD" opacity="0.18"/><circle cx="173.58" cy="331.87" r="1.17" fill="#F4ECDD" opacity="0.16"/><circle cx="473.76" cy="395.52" r="1.8" fill="#F4ECDD" opacity="0.19"/><circle cx="634.27" cy="539.02" r="1.49" fill="#E6B450" opacity="0.17"/><circle cx="1003.5" cy="336.37" r="1.95" fill="#E6B450" opacity="0.16"/><circle cx="410.06" cy="512.22" r="1.18" fill="#F4ECDD" opacity="0.15"/><circle cx="732.67" cy="155.04" r="1.35" fill="#F4ECDD" opacity="0.12"/><circle cx="234.8" cy="533.75" r="1.83" fill="#F4ECDD" opacity="0.07"/><circle cx="625.11" cy="432.26" r="1.16" fill="#E6B450" opacity="0.04"/><circle cx="371.57" cy="419.72" r="1.96" fill="#E6B450" opacity="0.05"/><circle cx="702.13" cy="87.83" r="1.95" fill="#E6B450" opacity="0.16"/><circle cx="286.95" cy="604.95" r="1.71" fill="#F4ECDD" opacity="0.17"/><circle cx="760.41" cy="326.12" r="1.08" fill="#F4ECDD" opacity="0.17"/><circle cx="648.87" cy="487.6" r="1.76" fill="#F4ECDD" opacity="0.16"/><circle cx="356.23" cy="400.4" r="1.93" fill="#F4ECDD" opacity="0.19"/><circle cx="1121.2" cy="55.6" r="1.94" fill="#F4ECDD" opacity="0.22"/><circle cx="360.97" cy="256.02" r="1.49" fill="#F4ECDD" opacity="0.09"/><circle cx="951.19" cy="629.73" r="1.14" fill="#F4ECDD" opacity="0.21"/><circle cx="21.88" cy="102.95" r="0.86" fill="#F4ECDD" opacity="0.18"/><circle cx="308.46" cy="286.76" r="1.29" fill="#F4ECDD" opacity="0.16"/><circle cx="1000.39" cy="191.28" r="1.57" fill="#F4ECDD" opacity="0.21"/><circle cx="605.3" cy="252.72" r="1.3" fill="#F4ECDD" opacity="0.05"/><circle cx="746.47" cy="514.09" r="1.97" fill="#F4ECDD" opacity="0.12"/><circle cx="1025.16" cy="372.63" r="0.93" fill="#E6B450" opacity="0.13"/><circle cx="603.56" cy="380.52" r="1.59" fill="#F4ECDD" opacity="0.17"/><circle cx="1153.42" cy="47.27" r="1.82" fill="#F4ECDD" opacity="0.08"/><circle cx="430.8" cy="448.32" r="1.44" fill="#E6B450" opacity="0.04"/><circle cx="931.93" cy="99.68" r="1.89" fill="#F4ECDD" opacity="0.15"/><circle cx="935.86" cy="528.17" r="1.74" fill="#F4ECDD" opacity="0.16"/><circle cx="107.53" cy="117.25" r="1.47" fill="#E6B450" opacity="0.2"/><circle cx="313.8" cy="228.54" r="1.03" fill="#F4ECDD" opacity="0.21"/><circle cx="752.31" cy="350.52" r="0.79" fill="#F4ECDD" opacity="0.13"/><circle cx="1132.45" cy="305.91" r="1.72" fill="#F4ECDD" opacity="0.09"/><circle cx="529.82" cy="508.63" r="1.52" fill="#F4ECDD" opacity="0.19"/><circle cx="1000.68" cy="562.24" r="1.05" fill="#F4ECDD" opacity="0.21"/><circle cx="240.92" cy="293.81" r="1.47" fill="#F4ECDD" opacity="0.19"/><circle cx="924.92" cy="91.09" r="1.22" fill="#F4ECDD" opacity="0.1"/><circle cx="229.09" cy="109.22" r="1.12" fill="#F4ECDD" opacity="0.12"/><circle cx="1013.11" cy="612.47" r="0.72" fill="#E6B450" opacity="0.2"/><circle cx="462.53" cy="12.39" r="0.95" fill="#E6B450" opacity="0.11"/><circle cx="1132.5" cy="326.97" r="1.68" fill="#E6B450" opacity="0.12"/><circle cx="1092.82" cy="485.31" r="1.31" fill="#F4ECDD" opacity="0.04"/><circle cx="510.57" cy="518.36" r="1.88" fill="#F4ECDD" opacity="0.1"/><circle cx="1159.93" cy="550.85" r="0.8" fill="#E6B450" opacity="0.05"/><circle cx="709.84" cy="240.23" r="1.47" fill="#F4ECDD" opacity="0.18"/><circle cx="884.67" cy="197.6" r="0.75" fill="#F4ECDD" opacity="0.06"/><circle cx="203.27" cy="597.9" r="1.34" fill="#F4ECDD" opacity="0.13"/><circle cx="782.19" cy="345.53" r="1.25" fill="#F4ECDD" opacity="0.07"/><circle cx="696.6" cy="153.64" r="1.42" fill="#E6B450" opacity="0.17"/><circle cx="940.58" cy="563.23" r="0.94" fill="#F4ECDD" opacity="0.16"/><circle cx="515.22" cy="493.64" r="1.86" fill="#E6B450" opacity="0.14"/><circle cx="729.23" cy="605.69" r="1.04" fill="#F4ECDD" opacity="0.18"/><circle cx="271.96" cy="185.73" r="1.85" fill="#E6B450" opacity="0.14"/><circle cx="65.38" cy="308.21" r="1.12" fill="#F4ECDD" opacity="0.21"/><circle cx="684.36" cy="130.53" r="0.79" fill="#F4ECDD" opacity="0.22"/><circle cx="1020.65" cy="590.45" r="1.46" fill="#F4ECDD" opacity="0.09"/><circle cx="980.57" cy="249.82" r="0.91" fill="#E6B450" opacity="0.22"/><circle cx="136.86" cy="208.77" r="1.62" fill="#F4ECDD" opacity="0.17"/><circle cx="805.01" cy="627.2" r="1.4" fill="#E6B450" opacity="0.05"/><circle cx="501.77" cy="586.17" r="1.44" fill="#F4ECDD" opacity="0.11"/><circle cx="759.01" cy="298.18" r="1.68" fill="#F4ECDD" opacity="0.15"/><circle cx="451.31" cy="185.27" r="1.48" fill="#F4ECDD" opacity="0.08"/><circle cx="861.7" cy="503.27" r="0.79" fill="#F4ECDD" opacity="0.07"/><circle cx="896.47" cy="572.6" r="1.39" fill="#F4ECDD" opacity="0.16"/><circle cx="27.79" cy="500.22" r="0.75" fill="#F4ECDD" opacity="0.06"/><circle cx="1054.55" cy="292.39" r="1.09" fill="#E6B450" opacity="0.09"/><circle cx="245.97" cy="342.71" r="1.22" fill="#F4ECDD" opacity="0.19"/><circle cx="4" cy="522.12" r="1.06" fill="#F4ECDD" opacity="0.19"/><circle cx="439.91" cy="628.54" r="1.32" fill="#F4ECDD" opacity="0.18"/><circle cx="277.93" cy="189.99" r="0.94" fill="#F4ECDD" opacity="0.12"/><circle cx="1194.35" cy="571.89" r="1.46" fill="#F4ECDD" opacity="0.07"/><circle cx="1098.4" cy="448.03" r="1.23" fill="#E6B450" opacity="0.16"/><circle cx="864.73" cy="174.43" r="1.79" fill="#F4ECDD" opacity="0.14"/><circle cx="354.07" cy="443.59" r="1.59" fill="#F4ECDD" opacity="0.05"/><circle cx="1122.88" cy="275.52" r="1.34" fill="#F4ECDD" opacity="0.17"/><circle cx="1036.56" cy="551.62" r="1.95" fill="#E6B450" opacity="0.15"/><circle cx="620.51" cy="280.18" r="1.55" fill="#E6B450" opacity="0.05"/><circle cx="575.15" cy="428" r="1.96" fill="#E6B450" opacity="0.08"/><circle cx="438.94" cy="75.74" r="1.47" fill="#F4ECDD" opacity="0.2"/><circle cx="181.55" cy="522.77" r="1.23" fill="#F4ECDD" opacity="0.06"/><circle cx="1104.12" cy="278.75" r="1.63" fill="#F4ECDD" opacity="0.11"/><circle cx="560.05" cy="319.31" r="1.6" fill="#E6B450" opacity="0.16"/><circle cx="354.79" cy="457.26" r="1.73" fill="#E6B450" opacity="0.17"/><circle cx="489.14" cy="85.15" r="1.7" fill="#F4ECDD" opacity="0.14"/><circle cx="1100.89" cy="254.47" r="1.6" fill="#F4ECDD" opacity="0.16"/><circle cx="725.09" cy="447.92" r="1.96" fill="#F4ECDD" opacity="0.07"/><circle cx="1070.86" cy="198.01" r="1.87" fill="#F4ECDD" opacity="0.2"/><circle cx="562.21" cy="163.76" r="1.28" fill="#F4ECDD" opacity="0.13"/><circle cx="124.6" cy="543.47" r="0.64" fill="#F4ECDD" opacity="0.15"/><circle cx="697.2" cy="268.69" r="1.11" fill="#E6B450" opacity="0.1"/><circle cx="689.92" cy="132.67" r="1.35" fill="#F4ECDD" opacity="0.22"/><circle cx="44.04" cy="66.47" r="1.2" fill="#E6B450" opacity="0.13"/><circle cx="974.24" cy="549.53" r="0.77" fill="#F4ECDD" opacity="0.11"/><circle cx="456.98" cy="491.11" r="0.98" fill="#F4ECDD" opacity="0.06"/><circle cx="164.77" cy="557.29" r="1.49" fill="#F4ECDD" opacity="0.1"/><circle cx="89.97" cy="239.06" r="1.34" fill="#F4ECDD" opacity="0.17"/><circle cx="383.9" cy="90.82" r="0.95" fill="#F4ECDD" opacity="0.17"/><circle cx="636.67" cy="510.96" r="1.2" fill="#E6B450" opacity="0.14"/><circle cx="1067.38" cy="5.62" r="1.99" fill="#F4ECDD" opacity="0.1"/><circle cx="1005.56" cy="313.35" r="1.83" fill="#F4ECDD" opacity="0.04"/><circle cx="159.32" cy="98.31" r="1.51" fill="#E6B450" opacity="0.21"/><circle cx="326.21" cy="21.91" r="1.69" fill="#F4ECDD" opacity="0.06"/><circle cx="822.69" cy="453.22" r="1.66" fill="#F4ECDD" opacity="0.21"/><circle cx="606.11" cy="35.89" r="1.44" fill="#F4ECDD" opacity="0.16"/><circle cx="655.68" cy="158.04" r="1.73" fill="#F4ECDD" opacity="0.19"/><circle cx="934.93" cy="434.39" r="1.8" fill="#F4ECDD" opacity="0.11"/><circle cx="439.44" cy="87.25" r="0.66" fill="#E6B450" opacity="0.18"/><circle cx="237.6" cy="411.63" r="1.28" fill="#F4ECDD" opacity="0.16"/><circle cx="468.21" cy="106.99" r="1.84" fill="#F4ECDD" opacity="0.1"/><circle cx="1064.05" cy="156.3" r="1.1" fill="#E6B450" opacity="0.18"/><circle cx="503.89" cy="509.85" r="1.99" fill="#E6B450" opacity="0.2"/><circle cx="839.48" cy="513.79" r="0.74" fill="#F4ECDD" opacity="0.19"/><circle cx="575.72" cy="32.23" r="1.33" fill="#F4ECDD" opacity="0.11"/><circle cx="126.1" cy="283.85" r="1.6" fill="#E6B450" opacity="0.17"/><circle cx="538.24" cy="184.4" r="1.05" fill="#F4ECDD" opacity="0.13"/><circle cx="985.85" cy="484.97" r="0.65" fill="#E6B450" opacity="0.05"/><circle cx="921.98" cy="8.49" r="1.57" fill="#E6B450" opacity="0.1"/><circle cx="568.57" cy="343.11" r="1.3" fill="#F4ECDD" opacity="0.07"/><circle cx="970.27" cy="183.73" r="0.96" fill="#F4ECDD" opacity="0.05"/><circle cx="704.61" cy="150.36" r="0.62" fill="#E6B450" opacity="0.12"/><circle cx="247.02" cy="477.03" r="1.46" fill="#F4ECDD" opacity="0.18"/><circle cx="393.74" cy="437.07" r="0.89" fill="#F4ECDD" opacity="0.18"/><circle cx="199.67" cy="533.99" r="0.96" fill="#F4ECDD" opacity="0.19"/><circle cx="132.24" cy="379.56" r="1.2" fill="#E6B450" opacity="0.15"/><circle cx="821.88" cy="597.37" r="0.8" fill="#F4ECDD" opacity="0.1"/><circle cx="126" cy="510.88" r="1.64" fill="#F4ECDD" opacity="0.07"/><circle cx="783.49" cy="3.93" r="0.85" fill="#E6B450" opacity="0.1"/><circle cx="462.41" cy="409.58" r="1.78" fill="#F4ECDD" opacity="0.22"/><circle cx="1021.87" cy="85.64" r="1.47" fill="#F4ECDD" opacity="0.18"/><circle cx="921.46" cy="614" r="1.32" fill="#E6B450" opacity="0.07"/><circle cx="1054.59" cy="497.47" r="1.75" fill="#F4ECDD" opacity="0.13"/><circle cx="378.12" cy="316.67" r="1.17" fill="#F4ECDD" opacity="0.08"/><circle cx="72.38" cy="25.38" r="1.3" fill="#E6B450" opacity="0.19"/><circle cx="478.46" cy="141.33" r="0.77" fill="#F4ECDD" opacity="0.08"/><circle cx="901.82" cy="186.76" r="0.92" fill="#F4ECDD" opacity="0.1"/><circle cx="456.93" cy="60.38" r="1.95" fill="#F4ECDD" opacity="0.15"/><circle cx="1088.38" cy="492.14" r="1.29" fill="#E6B450" opacity="0.15"/><circle cx="244.92" cy="355.19" r="1.56" fill="#F4ECDD" opacity="0.12"/><circle cx="600.27" cy="461.36" r="1.53" fill="#E6B450" opacity="0.15"/><circle cx="487.13" cy="458.91" r="1.38" fill="#F4ECDD" opacity="0.1"/><circle cx="392.88" cy="548.36" r="1.82" fill="#F4ECDD" opacity="0.13"/><circle cx="643.37" cy="61.97" r="1.59" fill="#F4ECDD" opacity="0.1"/><circle cx="809.64" cy="5" r="1.75" fill="#F4ECDD" opacity="0.1"/><circle cx="1122.83" cy="381.98" r="1.01" fill="#E6B450" opacity="0.21"/><circle cx="555.73" cy="431.37" r="0.72" fill="#F4ECDD" opacity="0.2"/><circle cx="859.58" cy="253.44" r="1.82" fill="#F4ECDD" opacity="0.09"/><circle cx="518.1" cy="58.16" r="1.3" fill="#F4ECDD" opacity="0.22"/><circle cx="1055.05" cy="151.06" r="1.77" fill="#F4ECDD" opacity="0.1"/><circle cx="511.42" cy="511.22" r="0.84" fill="#F4ECDD" opacity="0.1"/><circle cx="408.24" cy="280.04" r="1.11" fill="#F4ECDD" opacity="0.08"/><circle cx="892.04" cy="494.12" r="1.05" fill="#E6B450" opacity="0.12"/><circle cx="414.18" cy="169.88" r="1.08" fill="#F4ECDD" opacity="0.07"/><circle cx="1174.51" cy="453.44" r="1.76" fill="#F4ECDD" opacity="0.22"/><circle cx="1119.59" cy="506.77" r="1.1" fill="#F4ECDD" opacity="0.11"/><circle cx="649.88" cy="628.51" r="1.57" fill="#F4ECDD" opacity="0.14"/><circle cx="517.76" cy="503.99" r="1.73" fill="#E6B450" opacity="0.21"/><circle cx="1014.63" cy="9.81" r="1.52" fill="#F4ECDD" opacity="0.04"/><circle cx="1103.22" cy="5.39" r="1.08" fill="#F4ECDD" opacity="0.17"/><circle cx="962.09" cy="13.32" r="0.63" fill="#F4ECDD" opacity="0.11"/><circle cx="817.45" cy="251.95" r="0.99" fill="#F4ECDD" opacity="0.06"/><circle cx="3.5" cy="536.7" r="0.64" fill="#E6B450" opacity="0.2"/><circle cx="588.61" cy="616.22" r="0.91" fill="#F4ECDD" opacity="0.07"/><circle cx="946.28" cy="237.87" r="0.97" fill="#F4ECDD" opacity="0.1"/><circle cx="904.18" cy="124.84" r="1.45" fill="#F4ECDD" opacity="0.06"/><circle cx="354.84" cy="251.88" r="1.57" fill="#F4ECDD" opacity="0.16"/><circle cx="161.01" cy="235.5" r="0.73" fill="#F4ECDD" opacity="0.12"/><circle cx="567.14" cy="331.77" r="1.54" fill="#F4ECDD" opacity="0.16"/><circle cx="225.91" cy="349.48" r="1.41" fill="#F4ECDD" opacity="0.09"/><circle cx="848.92" cy="80.42" r="1.34" fill="#F4ECDD" opacity="0.07"/><circle cx="722.12" cy="539.78" r="1.72" fill="#F4ECDD" opacity="0.06"/><circle cx="45.17" cy="334.04" r="0.95" fill="#F4ECDD" opacity="0.16"/><circle cx="1171.29" cy="479.01" r="0.67" fill="#F4ECDD" opacity="0.17"/><circle cx="1027.46" cy="508.44" r="1.5" fill="#E6B450" opacity="0.12"/><circle cx="588.39" cy="389.02" r="1.42" fill="#E6B450" opacity="0.22"/><circle cx="1052" cy="299.24" r="0.88" fill="#F4ECDD" opacity="0.1"/><circle cx="712.55" cy="204.29" r="0.85" fill="#E6B450" opacity="0.15"/><circle cx="396.24" cy="356.21" r="1.91" fill="#F4ECDD" opacity="0.17"/><circle cx="251.34" cy="515.88" r="0.96" fill="#F4ECDD" opacity="0.09"/><circle cx="149.32" cy="150.23" r="1.18" fill="#E6B450" opacity="0.16"/><circle cx="1185.37" cy="417.89" r="1.86" fill="#F4ECDD" opacity="0.13"/><circle cx="1004.04" cy="346.78" r="1.43" fill="#E6B450" opacity="0.2"/><circle cx="389.33" cy="372.55" r="1.19" fill="#F4ECDD" opacity="0.13"/><circle cx="675.94" cy="536.29" r="1.13" fill="#F4ECDD" opacity="0.21"/><circle cx="872.59" cy="450.36" r="1.69" fill="#F4ECDD" opacity="0.08"/><circle cx="355.91" cy="2.3" r="0.96" fill="#F4ECDD" opacity="0.19"/><circle cx="154.97" cy="269.36" r="0.89" fill="#F4ECDD" opacity="0.05"/><circle cx="62.19" cy="67.01" r="0.88" fill="#F4ECDD" opacity="0.21"/><circle cx="951.74" cy="361.63" r="0.96" fill="#F4ECDD" opacity="0.18"/><circle cx="178.53" cy="364.16" r="1.82" fill="#F4ECDD" opacity="0.15"/><circle cx="499.8" cy="302.39" r="1.3" fill="#E6B450" opacity="0.12"/><circle cx="400.39" cy="554.64" r="1.22" fill="#F4ECDD" opacity="0.16"/><circle cx="316.05" cy="446.46" r="1.43" fill="#F4ECDD" opacity="0.08"/><circle cx="329.08" cy="99.76" r="1.16" fill="#F4ECDD" opacity="0.04"/><circle cx="55.24" cy="453.44" r="0.89" fill="#F4ECDD" opacity="0.2"/><circle cx="866.31" cy="25.77" r="0.61" fill="#F4ECDD" opacity="0.17"/><circle cx="270.63" cy="165.62" r="1.33" fill="#F4ECDD" opacity="0.21"/><circle cx="1187.17" cy="320.11" r="1.27" fill="#F4ECDD" opacity="0.05"/><circle cx="545.31" cy="78.17" r="1.49" fill="#E6B450" opacity="0.09"/><circle cx="1180.76" cy="248.78" r="1.01" fill="#E6B450" opacity="0.2"/><circle cx="403.31" cy="560.59" r="1.2" fill="#F4ECDD" opacity="0.13"/><circle cx="286.32" cy="415.69" r="1.12" fill="#F4ECDD" opacity="0.04"/><circle cx="330.94" cy="506.01" r="1.27" fill="#E6B450" opacity="0.1"/><circle cx="121.13" cy="178.35" r="1.06" fill="#F4ECDD" opacity="0.16"/><circle cx="1159.5" cy="307.28" r="1.59" fill="#F4ECDD" opacity="0.13"/><circle cx="836.42" cy="404.86" r="0.81" fill="#F4ECDD" opacity="0.14"/><circle cx="1019.54" cy="184.14" r="1.13" fill="#F4ECDD" opacity="0.18"/><circle cx="312.92" cy="41.84" r="1.22" fill="#E6B450" opacity="0.12"/><circle cx="879.49" cy="26.96" r="1.02" fill="#F4ECDD" opacity="0.19"/><circle cx="887.32" cy="486.02" r="1.77" fill="#E6B450" opacity="0.1"/><circle cx="518" cy="285.89" r="1.45" fill="#F4ECDD" opacity="0.21"/><circle cx="106.21" cy="154.48" r="1.83" fill="#F4ECDD" opacity="0.06"/><circle cx="1017.25" cy="626.97" r="1.03" fill="#F4ECDD" opacity="0.07"/><circle cx="405.94" cy="155.08" r="1.9" fill="#F4ECDD" opacity="0.04"/><circle cx="955.29" cy="287.92" r="1.36" fill="#F4ECDD" opacity="0.2"/><circle cx="14.18" cy="58.72" r="0.73" fill="#F4ECDD" opacity="0.22"/><circle cx="924.1" cy="261.13" r="1.68" fill="#E6B450" opacity="0.08"/><circle cx="245.11" cy="575.69" r="1.21" fill="#F4ECDD" opacity="0.11"/><circle cx="456.5" cy="304.82" r="1.22" fill="#F4ECDD" opacity="0.04"/><circle cx="745.24" cy="102.45" r="0.88" fill="#E6B450" opacity="0.08"/><circle cx="113.69" cy="41.44" r="1.44" fill="#F4ECDD" opacity="0.05"/><circle cx="322.02" cy="449.18" r="0.71" fill="#F4ECDD" opacity="0.11"/><circle cx="909.88" cy="65.65" r="1.9" fill="#F4ECDD" opacity="0.09"/><circle cx="240.26" cy="140.99" r="0.75" fill="#F4ECDD" opacity="0.11"/><circle cx="375.41" cy="430.3" r="0.89" fill="#F4ECDD" opacity="0.18"/><circle cx="356.18" cy="464.82" r="1" fill="#F4ECDD" opacity="0.07"/>
  <rect x="0" y="0" width="1200" height="630" filter="url(#grain)" opacity="0.05" style="mix-blend-mode:overlay"/>
  <rect x="14" y="14" width="1172" height="602" rx="20" fill="none" stroke="rgba(245,232,210,0.10)" stroke-width="1"/>
  <g transform="translate(1140 570) scale(0.30)" opacity="0.9"><path d="M50 2 C53 30 70 47 98 50 C70 53 53 70 50 98 C47 70 30 53 2 50 C30 47 47 30 50 2 Z" fill="#E6B450"/></g>
</svg>