<svg viewBox="0 0 1200 630" width="1200" height="630" xmlns="http://www.w3.org/2000/svg" role="img">
  <defs>
    <radialGradient id="glow" cx="53.99%" cy="20%" r="90%">
      <stop offset="0%" stop-color="#1B140C"/>
      <stop offset="46%" stop-color="#0A0807"/>
      <stop offset="100%" stop-color="#060504"/>
    </radialGradient>
    <radialGradient id="bloom" cx="50%" cy="50%" r="50%">
      <stop offset="0%" stop-color="#EBC169" stop-opacity="0.55"/>
      <stop offset="55%" stop-color="#EBC169" stop-opacity="0.12"/>
      <stop offset="100%" stop-color="#EBC169" stop-opacity="0"/>
    </radialGradient>
    <linearGradient id="leak" x1="0" y1="0" x2="1" y2="1">
      <stop offset="0%" stop-color="#B98A4A" stop-opacity="0.30"/>
      <stop offset="40%" stop-color="#0A0807" stop-opacity="0.2"/>
      <stop offset="100%" stop-color="#060504" stop-opacity="0.1"/>
    </linearGradient>
    <linearGradient id="vgrain" x1="0" y1="0" x2="0" y2="1">
      <stop offset="0%" stop-color="#B98A4A" stop-opacity="0.22"/>
      <stop offset="60%" stop-color="#0A0807"/>
      <stop offset="100%" stop-color="#060504"/>
    </linearGradient>
    <filter id="grain"><feTurbulence type="fractalNoise" baseFrequency="0.9" numOctaves="2" stitchTiles="stitch"/>
      <feColorMatrix type="saturate" values="0"/></filter>
  </defs>
  <rect x="0" y="0" width="1200" height="630" fill="url(#glow)"/>
  <path d="M470.0 165.0 L730.0 165.0 L608.0 315.0 L592.0 315.0 Z" fill="rgba(230,180,80,0.05)" stroke="#EBC169" stroke-width="2.4"/><path d="M592.0 315.0 L608.0 315.0 L730.0 465.0 L470.0 465.0 Z" fill="rgba(230,180,80,0.05)" stroke="#EBC169" stroke-width="2.4"/><path d="M482.0 177.0 L718.0 177.0 L604.0 301.0 L596.0 301.0 Z" fill="#EBC169" opacity=".22"/><path d="M510.0 453.0 L690.0 453.0 L604.0 385.0 L596.0 385.0 Z" fill="#EBC169" opacity=".3"/><circle cx="601.5" cy="323" r="2.4" fill="#EBC169" opacity="0.7"/><circle cx="599.94" cy="339" r="2.4" fill="#EBC169" opacity="0.7"/><circle cx="597.65" cy="355" r="2.4" fill="#EBC169" opacity="0.7"/><circle cx="601.27" cy="371" r="2.4" fill="#EBC169" opacity="0.7"/><circle cx="602.28" cy="387" r="2.4" fill="#EBC169" opacity="0.7"/><circle cx="602.01" cy="403" r="2.4" fill="#EBC169" opacity="0.7"/><circle cx="597.94" cy="419" r="2.4" fill="#EBC169" opacity="0.7"/><line x1="450" y1="165" x2="750" y2="165" stroke="#EBC169" stroke-width="3" stroke-linecap="round" opacity="0.9"/><line x1="450" y1="465" x2="750" y2="465" stroke="#EBC169" stroke-width="3" stroke-linecap="round" opacity="0.9"/>
  <rect x="0" y="0" width="1200" height="630" filter="url(#grain)" opacity="0.05" style="mix-blend-mode:overlay"/>
  <rect x="14" y="14" width="1172" height="602" rx="20" fill="none" stroke="rgba(245,232,210,0.10)" stroke-width="1"/>
  <g transform="translate(1140 570) scale(0.30)" opacity="0.9"><path d="M50 2 C53 30 70 47 98 50 C70 53 53 70 50 98 C47 70 30 53 2 50 C30 47 47 30 50 2 Z" fill="#EBC169"/></g>
</svg>