<svg viewBox="0 0 1200 630" width="1200" height="630" xmlns="http://www.w3.org/2000/svg" role="img">
  <defs>
    <radialGradient id="glow" cx="43.69%" cy="20%" r="90%">
      <stop offset="0%" stop-color="#1B140C"/>
      <stop offset="46%" stop-color="#0A0807"/>
      <stop offset="100%" stop-color="#060504"/>
    </radialGradient>
    <radialGradient id="bloom" cx="50%" cy="50%" r="50%">
      <stop offset="0%" stop-color="#D9C39A" stop-opacity="0.55"/>
      <stop offset="55%" stop-color="#D9C39A" stop-opacity="0.12"/>
      <stop offset="100%" stop-color="#D9C39A" stop-opacity="0"/>
    </radialGradient>
    <linearGradient id="leak" x1="0" y1="0" x2="1" y2="1">
      <stop offset="0%" stop-color="#A9824E" stop-opacity="0.30"/>
      <stop offset="40%" stop-color="#0A0807" stop-opacity="0.2"/>
      <stop offset="100%" stop-color="#060504" stop-opacity="0.1"/>
    </linearGradient>
    <linearGradient id="vgrain" x1="0" y1="0" x2="0" y2="1">
      <stop offset="0%" stop-color="#A9824E" stop-opacity="0.22"/>
      <stop offset="60%" stop-color="#0A0807"/>
      <stop offset="100%" stop-color="#060504"/>
    </linearGradient>
    <filter id="grain"><feTurbulence type="fractalNoise" baseFrequency="0.9" numOctaves="2" stitchTiles="stitch"/>
      <feColorMatrix type="saturate" values="0"/></filter>
  </defs>
  <rect x="0" y="0" width="1200" height="630" fill="url(#glow)"/>
  <circle cx="600" cy="315" r="210" fill="url(#bloom)" opacity="0.5"/><line x1="669.99" y1="315.84" x2="847.45" y2="317.98" stroke="#D9C39A" stroke-width="2" stroke-linecap="round" opacity="0.8"/><line x1="667.8" y1="332.43" x2="768.83" y2="358.39" stroke="#D9C39A" stroke-width="1.2" stroke-linecap="round" opacity="0.4"/><line x1="660.3" y1="350.55" x2="803.3" y2="434.83" stroke="#D9C39A" stroke-width="2" stroke-linecap="round" opacity="0.8"/><line x1="646.9" y1="366.97" x2="703.72" y2="429.93" stroke="#D9C39A" stroke-width="1.2" stroke-linecap="round" opacity="0.4"/><line x1="627.97" y1="379.17" x2="688.54" y2="518.1" stroke="#D9C39A" stroke-width="2" stroke-linecap="round" opacity="0.8"/><line x1="607.64" y1="384.58" x2="617.03" y2="470.04" stroke="#D9C39A" stroke-width="1.2" stroke-linecap="round" opacity="0.4"/><line x1="592.59" y1="384.61" x2="574.03" y2="558.98" stroke="#D9C39A" stroke-width="2" stroke-linecap="round" opacity="0.8"/><line x1="570.42" y1="378.44" x2="528.75" y2="467.82" stroke="#D9C39A" stroke-width="1.2" stroke-linecap="round" opacity="0.4"/><line x1="553.28" y1="367.13" x2="440.58" y2="492.87" stroke="#D9C39A" stroke-width="2" stroke-linecap="round" opacity="0.8"/><line x1="540.56" y1="351.97" x2="460.87" y2="401.53" stroke="#D9C39A" stroke-width="1.2" stroke-linecap="round" opacity="0.4"/><line x1="533.28" y1="336.18" x2="389.41" y2="381.85" stroke="#D9C39A" stroke-width="2" stroke-linecap="round" opacity="0.8"/><line x1="530" y1="315.13" x2="421.72" y2="315.32" stroke="#D9C39A" stroke-width="1.2" stroke-linecap="round" opacity="0.4"/><line x1="532.24" y1="297.44" x2="361.35" y2="253.17" stroke="#D9C39A" stroke-width="2" stroke-linecap="round" opacity="0.8"/><line x1="540.1" y1="278.77" x2="468.5" y2="235.47" stroke="#D9C39A" stroke-width="1.2" stroke-linecap="round" opacity="0.4"/><line x1="552.79" y1="263.32" x2="435.51" y2="134.95" stroke="#D9C39A" stroke-width="2" stroke-linecap="round" opacity="0.8"/><line x1="568.69" y1="252.39" x2="521.48" y2="158" stroke="#D9C39A" stroke-width="1.2" stroke-linecap="round" opacity="0.4"/><line x1="590.84" y1="245.6" x2="570.89" y2="94.4" stroke="#D9C39A" stroke-width="2" stroke-linecap="round" opacity="0.8"/><line x1="609.08" y1="245.59" x2="621.75" y2="148.82" stroke="#D9C39A" stroke-width="1.2" stroke-linecap="round" opacity="0.4"/><line x1="628.13" y1="250.9" x2="695.41" y2="97.59" stroke="#D9C39A" stroke-width="2" stroke-linecap="round" opacity="0.8"/><line x1="644.07" y1="260.61" x2="696.1" y2="196.39" stroke="#D9C39A" stroke-width="1.2" stroke-linecap="round" opacity="0.4"/><line x1="660.29" y1="279.43" x2="813.24" y2="189.18" stroke="#D9C39A" stroke-width="2" stroke-linecap="round" opacity="0.8"/><line x1="667.35" y1="295.93" x2="772.3" y2="266.22" stroke="#D9C39A" stroke-width="1.2" stroke-linecap="round" opacity="0.4"/><g transform="translate(556 271) scale(0.88)"><path d="M50 2 C53 30 70 47 98 50 C70 53 53 70 50 98 C47 70 30 53 2 50 C30 47 47 30 50 2 Z" fill="#D9C39A"/></g>
  <rect x="0" y="0" width="1200" height="630" filter="url(#grain)" opacity="0.05" style="mix-blend-mode:overlay"/>
  <rect x="14" y="14" width="1172" height="602" rx="20" fill="none" stroke="rgba(245,232,210,0.10)" stroke-width="1"/>
  <g transform="translate(1140 570) scale(0.30)" opacity="0.9"><path d="M50 2 C53 30 70 47 98 50 C70 53 53 70 50 98 C47 70 30 53 2 50 C30 47 47 30 50 2 Z" fill="#D9C39A"/></g>
</svg>