<svg viewBox="0 0 1200 630" width="1200" height="630" xmlns="http://www.w3.org/2000/svg" role="img">
  <defs>
    <radialGradient id="glow" cx="52.65%" cy="20%" r="90%">
      <stop offset="0%" stop-color="#1B140C"/>
      <stop offset="46%" stop-color="#0A0807"/>
      <stop offset="100%" stop-color="#060504"/>
    </radialGradient>
    <radialGradient id="bloom" cx="50%" cy="50%" r="50%">
      <stop offset="0%" stop-color="#E6B450" stop-opacity="0.55"/>
      <stop offset="55%" stop-color="#E6B450" stop-opacity="0.12"/>
      <stop offset="100%" stop-color="#E6B450" stop-opacity="0"/>
    </radialGradient>
    <linearGradient id="leak" x1="0" y1="0" x2="1" y2="1">
      <stop offset="0%" stop-color="#C8852F" stop-opacity="0.30"/>
      <stop offset="40%" stop-color="#0A0807" stop-opacity="0.2"/>
      <stop offset="100%" stop-color="#060504" stop-opacity="0.1"/>
    </linearGradient>
    <linearGradient id="vgrain" x1="0" y1="0" x2="0" y2="1">
      <stop offset="0%" stop-color="#C8852F" stop-opacity="0.22"/>
      <stop offset="60%" stop-color="#0A0807"/>
      <stop offset="100%" stop-color="#060504"/>
    </linearGradient>
    <filter id="grain"><feTurbulence type="fractalNoise" baseFrequency="0.9" numOctaves="2" stitchTiles="stitch"/>
      <feColorMatrix type="saturate" values="0"/></filter>
  </defs>
  <rect x="0" y="0" width="1200" height="630" fill="url(#glow)"/>
  <rect x="118" y="104" width="180" height="130" rx="6" fill="rgba(244,236,221,0.04)" stroke="#E6B450" stroke-width="1.6" opacity="1"/><rect x="118" y="104" width="180" height="130" rx="6" fill="none" stroke="#E6B450" stroke-width="1.6" opacity="0.4"/><circle cx="134" cy="97" r="2.4" fill="#E6B450" opacity="0.4"/><circle cx="183.33" cy="97" r="2.4" fill="#E6B450" opacity="0.4"/><circle cx="232.67" cy="97" r="2.4" fill="#E6B450" opacity="0.4"/><circle cx="282" cy="97" r="2.4" fill="#E6B450" opacity="0.4"/><rect x="314" y="104" width="180" height="130" rx="6" fill="#E6B450" stroke="#E6B450" stroke-width="1.6" opacity="0.16"/><rect x="314" y="104" width="180" height="130" rx="6" fill="none" stroke="#E6B450" stroke-width="1.6" opacity="0.6"/><circle cx="330" cy="97" r="2.4" fill="#E6B450" opacity="0.4"/><circle cx="379.33" cy="97" r="2.4" fill="#E6B450" opacity="0.4"/><circle cx="428.67" cy="97" r="2.4" fill="#E6B450" opacity="0.4"/><circle cx="478" cy="97" r="2.4" fill="#E6B450" opacity="0.4"/><rect x="510" y="104" width="180" height="130" rx="6" fill="rgba(244,236,221,0.04)" stroke="#E6B450" stroke-width="1.6" opacity="1"/><rect x="510" y="104" width="180" height="130" rx="6" fill="none" stroke="#E6B450" stroke-width="1.6" opacity="0.4"/><circle cx="526" cy="97" r="2.4" fill="#E6B450" opacity="0.4"/><circle cx="575.33" cy="97" r="2.4" fill="#E6B450" opacity="0.4"/><circle cx="624.67" cy="97" r="2.4" fill="#E6B450" opacity="0.4"/><circle cx="674" cy="97" r="2.4" fill="#E6B450" opacity="0.4"/><rect x="706" y="104" width="180" height="130" rx="6" fill="rgba(244,236,221,0.04)" stroke="#E6B450" stroke-width="1.6" opacity="1"/><rect x="706" y="104" width="180" height="130" rx="6" fill="none" stroke="#E6B450" stroke-width="1.6" opacity="0.4"/><circle cx="722" cy="97" r="2.4" fill="#E6B450" opacity="0.4"/><circle cx="771.33" cy="97" r="2.4" fill="#E6B450" opacity="0.4"/><circle cx="820.67" cy="97" r="2.4" fill="#E6B450" opacity="0.4"/><circle cx="870" cy="97" r="2.4" fill="#E6B450" opacity="0.4"/><rect x="902" y="104" width="180" height="130" rx="6" fill="rgba(244,236,221,0.04)" stroke="#E6B450" stroke-width="1.6" opacity="1"/><rect x="902" y="104" width="180" height="130" rx="6" fill="none" stroke="#E6B450" stroke-width="1.6" opacity="0.4"/><circle cx="918" cy="97" r="2.4" fill="#E6B450" opacity="0.4"/><circle cx="967.33" cy="97" r="2.4" fill="#E6B450" opacity="0.4"/><circle cx="1016.67" cy="97" r="2.4" fill="#E6B450" opacity="0.4"/><circle cx="1066" cy="97" r="2.4" fill="#E6B450" opacity="0.4"/><rect x="118" y="250" width="180" height="130" rx="6" fill="rgba(244,236,221,0.04)" stroke="#E6B450" stroke-width="1.6" opacity="1"/><rect x="118" y="250" width="180" height="130" rx="6" fill="none" stroke="#E6B450" stroke-width="1.6" opacity="0.4"/><circle cx="134" cy="243" r="2.4" fill="#E6B450" opacity="0.4"/><circle cx="183.33" cy="243" r="2.4" fill="#E6B450" opacity="0.4"/><circle cx="232.67" cy="243" r="2.4" fill="#E6B450" opacity="0.4"/><circle cx="282" cy="243" r="2.4" fill="#E6B450" opacity="0.4"/><rect x="314" y="250" width="180" height="130" rx="6" fill="rgba(244,236,221,0.04)" stroke="#E6B450" stroke-width="1.6" opacity="1"/><rect x="314" y="250" width="180" height="130" rx="6" fill="none" stroke="#E6B450" stroke-width="1.6" opacity="0.4"/><circle cx="330" cy="243" r="2.4" fill="#E6B450" opacity="0.4"/><circle cx="379.33" cy="243" r="2.4" fill="#E6B450" opacity="0.4"/><circle cx="428.67" cy="243" r="2.4" fill="#E6B450" opacity="0.4"/><circle cx="478" cy="243" r="2.4" fill="#E6B450" opacity="0.4"/><rect x="510" y="250" width="180" height="130" rx="6" fill="rgba(244,236,221,0.04)" stroke="#E6B450" stroke-width="1.6" opacity="1"/><rect x="510" y="250" width="180" height="130" rx="6" fill="none" stroke="#E6B450" stroke-width="1.6" opacity="0.4"/><circle cx="526" cy="243" r="2.4" fill="#E6B450" opacity="0.4"/><circle cx="575.33" cy="243" r="2.4" fill="#E6B450" opacity="0.4"/><circle cx="624.67" cy="243" r="2.4" fill="#E6B450" opacity="0.4"/><circle cx="674" cy="243" r="2.4" fill="#E6B450" opacity="0.4"/><rect x="706" y="250" width="180" height="130" rx="6" fill="rgba(244,236,221,0.04)" stroke="#E6B450" stroke-width="1.6" opacity="1"/><rect x="706" y="250" width="180" height="130" rx="6" fill="none" stroke="#E6B450" stroke-width="1.6" opacity="0.4"/><circle cx="722" cy="243" r="2.4" fill="#E6B450" opacity="0.4"/><circle cx="771.33" cy="243" r="2.4" fill="#E6B450" opacity="0.4"/><circle cx="820.67" cy="243" r="2.4" fill="#E6B450" opacity="0.4"/><circle cx="870" cy="243" r="2.4" fill="#E6B450" opacity="0.4"/><rect x="902" y="250" width="180" height="130" rx="6" fill="rgba(244,236,221,0.04)" stroke="#E6B450" stroke-width="1.6" opacity="1"/><rect x="902" y="250" width="180" height="130" rx="6" fill="none" stroke="#E6B450" stroke-width="1.6" opacity="0.4"/><circle cx="918" cy="243" r="2.4" fill="#E6B450" opacity="0.4"/><circle cx="967.33" cy="243" r="2.4" fill="#E6B450" opacity="0.4"/><circle cx="1016.67" cy="243" r="2.4" fill="#E6B450" opacity="0.4"/><circle cx="1066" cy="243" r="2.4" fill="#E6B450" opacity="0.4"/><rect x="118" y="396" width="180" height="130" rx="6" fill="#E6B450" stroke="#E6B450" stroke-width="1.6" opacity="0.16"/><rect x="118" y="396" width="180" height="130" rx="6" fill="none" stroke="#E6B450" stroke-width="1.6" opacity="0.6"/><circle cx="134" cy="389" r="2.4" fill="#E6B450" opacity="0.4"/><circle cx="183.33" cy="389" r="2.4" fill="#E6B450" opacity="0.4"/><circle cx="232.67" cy="389" r="2.4" fill="#E6B450" opacity="0.4"/><circle cx="282" cy="389" r="2.4" fill="#E6B450" opacity="0.4"/><rect x="314" y="396" width="180" height="130" rx="6" fill="#E6B450" stroke="#E6B450" stroke-width="1.6" opacity="0.16"/><rect x="314" y="396" width="180" height="130" rx="6" fill="none" stroke="#E6B450" stroke-width="1.6" opacity="0.6"/><circle cx="330" cy="389" r="2.4" fill="#E6B450" opacity="0.4"/><circle cx="379.33" cy="389" r="2.4" fill="#E6B450" opacity="0.4"/><circle cx="428.67" cy="389" r="2.4" fill="#E6B450" opacity="0.4"/><circle cx="478" cy="389" r="2.4" fill="#E6B450" opacity="0.4"/><rect x="510" y="396" width="180" height="130" rx="6" fill="rgba(244,236,221,0.04)" stroke="#E6B450" stroke-width="1.6" opacity="1"/><rect x="510" y="396" width="180" height="130" rx="6" fill="none" stroke="#E6B450" stroke-width="1.6" opacity="0.4"/><circle cx="526" cy="389" r="2.4" fill="#E6B450" opacity="0.4"/><circle cx="575.33" cy="389" r="2.4" fill="#E6B450" opacity="0.4"/><circle cx="624.67" cy="389" r="2.4" fill="#E6B450" opacity="0.4"/><circle cx="674" cy="389" r="2.4" fill="#E6B450" opacity="0.4"/><rect x="706" y="396" width="180" height="130" rx="6" fill="rgba(244,236,221,0.04)" stroke="#E6B450" stroke-width="1.6" opacity="1"/><rect x="706" y="396" width="180" height="130" rx="6" fill="none" stroke="#E6B450" stroke-width="1.6" opacity="0.4"/><circle cx="722" cy="389" r="2.4" fill="#E6B450" opacity="0.4"/><circle cx="771.33" cy="389" r="2.4" fill="#E6B450" opacity="0.4"/><circle cx="820.67" cy="389" r="2.4" fill="#E6B450" opacity="0.4"/><circle cx="870" cy="389" r="2.4" fill="#E6B450" opacity="0.4"/><rect x="902" y="396" width="180" height="130" rx="6" fill="rgba(244,236,221,0.04)" stroke="#E6B450" stroke-width="1.6" opacity="1"/><rect x="902" y="396" width="180" height="130" rx="6" fill="none" stroke="#E6B450" stroke-width="1.6" opacity="0.4"/><circle cx="918" cy="389" r="2.4" fill="#E6B450" opacity="0.4"/><circle cx="967.33" cy="389" r="2.4" fill="#E6B450" opacity="0.4"/><circle cx="1016.67" cy="389" r="2.4" fill="#E6B450" opacity="0.4"/><circle cx="1066" cy="389" r="2.4" fill="#E6B450" opacity="0.4"/>
  <rect x="0" y="0" width="1200" height="630" filter="url(#grain)" opacity="0.05" style="mix-blend-mode:overlay"/>
  <rect x="14" y="14" width="1172" height="602" rx="20" fill="none" stroke="rgba(245,232,210,0.10)" stroke-width="1"/>
  <g transform="translate(1140 570) scale(0.30)" opacity="0.9"><path d="M50 2 C53 30 70 47 98 50 C70 53 53 70 50 98 C47 70 30 53 2 50 C30 47 47 30 50 2 Z" fill="#E6B450"/></g>
</svg>