<svg viewBox="0 0 1200 630" width="1200" height="630" xmlns="http://www.w3.org/2000/svg" role="img">
  <defs>
    <radialGradient id="glow" cx="52.31%" cy="20%" r="90%">
      <stop offset="0%" stop-color="#1B140C"/>
      <stop offset="46%" stop-color="#0A0807"/>
      <stop offset="100%" stop-color="#060504"/>
    </radialGradient>
    <radialGradient id="bloom" cx="50%" cy="50%" r="50%">
      <stop offset="0%" stop-color="#E6B450" stop-opacity="0.55"/>
      <stop offset="55%" stop-color="#E6B450" stop-opacity="0.12"/>
      <stop offset="100%" stop-color="#E6B450" stop-opacity="0"/>
    </radialGradient>
    <linearGradient id="leak" x1="0" y1="0" x2="1" y2="1">
      <stop offset="0%" stop-color="#C98A3A" stop-opacity="0.30"/>
      <stop offset="40%" stop-color="#0A0807" stop-opacity="0.2"/>
      <stop offset="100%" stop-color="#060504" stop-opacity="0.1"/>
    </linearGradient>
    <linearGradient id="vgrain" x1="0" y1="0" x2="0" y2="1">
      <stop offset="0%" stop-color="#C98A3A" stop-opacity="0.22"/>
      <stop offset="60%" stop-color="#0A0807"/>
      <stop offset="100%" stop-color="#060504"/>
    </linearGradient>
    <filter id="grain"><feTurbulence type="fractalNoise" baseFrequency="0.9" numOctaves="2" stitchTiles="stitch"/>
      <feColorMatrix type="saturate" values="0"/></filter>
  </defs>
  <rect x="0" y="0" width="1200" height="630" fill="url(#glow)"/>
  <circle cx="600" cy="315" r="210" fill="url(#bloom)" opacity="0.5"/><line x1="669.97" y1="312.94" x2="839.66" y2="307.94" stroke="#E6B450" stroke-width="2" stroke-linecap="round" opacity="0.8"/><line x1="666.54" y1="336.75" x2="749.34" y2="363.82" stroke="#E6B450" stroke-width="1.2" stroke-linecap="round" opacity="0.4"/><line x1="659.53" y1="351.82" x2="808.14" y2="443.75" stroke="#E6B450" stroke-width="2" stroke-linecap="round" opacity="0.8"/><line x1="644.96" y1="368.65" x2="702.49" y2="437.3" stroke="#E6B450" stroke-width="1.2" stroke-linecap="round" opacity="0.4"/><line x1="630.05" y1="378.22" x2="698.49" y2="522.24" stroke="#E6B450" stroke-width="2" stroke-linecap="round" opacity="0.8"/><line x1="609.62" y1="384.34" x2="621.19" y2="467.67" stroke="#E6B450" stroke-width="1.2" stroke-linecap="round" opacity="0.4"/><line x1="588.24" y1="384" x2="559.87" y2="550.43" stroke="#E6B450" stroke-width="2" stroke-linecap="round" opacity="0.8"/><line x1="568.62" y1="377.57" x2="522.65" y2="469.25" stroke="#E6B450" stroke-width="1.2" stroke-linecap="round" opacity="0.4"/><line x1="556.01" y1="369.45" x2="455.13" y2="494.29" stroke="#E6B450" stroke-width="2" stroke-linecap="round" opacity="0.8"/><line x1="541.48" y1="353.41" x2="472.71" y2="398.54" stroke="#E6B450" stroke-width="1.2" stroke-linecap="round" opacity="0.4"/><line x1="533.04" y1="335.42" x2="365.56" y2="386.49" stroke="#E6B450" stroke-width="2" stroke-linecap="round" opacity="0.8"/><line x1="530.01" y1="313.88" x2="449.5" y2="312.59" stroke="#E6B450" stroke-width="1.2" stroke-linecap="round" opacity="0.4"/><line x1="532.17" y1="297.69" x2="373.11" y2="257.09" stroke="#E6B450" stroke-width="2" stroke-linecap="round" opacity="0.8"/><line x1="540.72" y1="277.77" x2="451.47" y2="221.7" stroke="#E6B450" stroke-width="1.2" stroke-linecap="round" opacity="0.4"/><line x1="556.07" y1="260.5" x2="461.5" y2="143.16" stroke="#E6B450" stroke-width="2" stroke-linecap="round" opacity="0.8"/><line x1="568.56" y1="252.46" x2="524.17" y2="164.13" stroke="#E6B450" stroke-width="1.2" stroke-linecap="round" opacity="0.4"/><line x1="589.6" y1="245.78" x2="563.85" y2="74.38" stroke="#E6B450" stroke-width="2" stroke-linecap="round" opacity="0.8"/><line x1="609.09" y1="245.59" x2="621.25" y2="152.65" stroke="#E6B450" stroke-width="1.2" stroke-linecap="round" opacity="0.4"/><line x1="630.37" y1="251.93" x2="700.29" y2="106.73" stroke="#E6B450" stroke-width="2" stroke-linecap="round" opacity="0.8"/><line x1="646.98" y1="263.1" x2="708.54" y2="195.09" stroke="#E6B450" stroke-width="1.2" stroke-linecap="round" opacity="0.4"/><line x1="660.11" y1="279.13" x2="811.33" y2="188.88" stroke="#E6B450" stroke-width="2" stroke-linecap="round" opacity="0.8"/><line x1="667.45" y1="296.29" x2="767.01" y2="268.67" stroke="#E6B450" stroke-width="1.2" stroke-linecap="round" opacity="0.4"/><g transform="translate(556 271) scale(0.88)"><path d="M50 2 C53 30 70 47 98 50 C70 53 53 70 50 98 C47 70 30 53 2 50 C30 47 47 30 50 2 Z" fill="#E6B450"/></g>
  <rect x="0" y="0" width="1200" height="630" filter="url(#grain)" opacity="0.05" style="mix-blend-mode:overlay"/>
  <rect x="14" y="14" width="1172" height="602" rx="20" fill="none" stroke="rgba(245,232,210,0.10)" stroke-width="1"/>
  <g transform="translate(1140 570) scale(0.30)" opacity="0.9"><path d="M50 2 C53 30 70 47 98 50 C70 53 53 70 50 98 C47 70 30 53 2 50 C30 47 47 30 50 2 Z" fill="#E6B450"/></g>
</svg>